<?xml version="1.0" standalone="no"?>
<!DOCTYPE svg PUBLIC "-//W3C//DTD SVG 20010904//EN"
 "http://www.w3.org/TR/2001/REC-SVG-20010904/DTD/svg10.dtd">
<svg version="1.0" xmlns="http://www.w3.org/2000/svg"
 width="2000.000000pt" height="2000.000000pt" viewBox="0 0 2000.000000 2000.000000"
 preserveAspectRatio="xMidYMid meet">
<metadata>
Created by potrace 1.14, written by Peter Selinger 2001-2017
</metadata>
<g transform="translate(0.000000,2000.000000) scale(0.100000,-0.100000)"
fill="#000000" stroke="none">
<path d="M9688 16529 c-10 -5 -18 -7 -18 -3 0 3 -8 0 -17 -7 -10 -8 -14 -9
-10 -2 8 13 -30 12 -51 -1 -7 -4 -12 -3 -12 1 0 9 -40 10 -56 1 -5 -3 -24 -5
-42 -4 -17 0 -32 -2 -32 -5 0 -3 -12 -4 -26 -1 -20 4 -25 2 -19 -8 6 -10 4
-11 -6 -4 -19 12 -39 14 -39 4 0 -4 -15 -5 -32 -1 -39 9 -61 4 -51 -12 4 -7
-1 -6 -10 2 -13 10 -17 10 -17 1 0 -10 -3 -10 -14 -1 -11 9 -17 8 -29 -4 -10
-10 -18 -12 -22 -5 -5 8 -11 8 -19 1 -9 -7 -16 -7 -23 0 -7 7 -15 5 -26 -5
-17 -18 -32 -21 -22 -6 4 7 -3 7 -20 0 -15 -6 -30 -8 -35 -5 -5 3 -11 1 -14
-3 -3 -5 -19 -8 -36 -7 -16 1 -30 -2 -30 -7 0 -4 -5 -8 -11 -8 -5 0 -7 6 -4
13 4 6 -1 3 -9 -7 -9 -11 -16 -15 -16 -8 0 8 -7 9 -22 3 -13 -4 -29 -6 -37 -3
-8 2 -11 0 -7 -6 4 -6 -2 -8 -16 -4 -12 3 -19 1 -15 -4 3 -5 -3 -10 -14 -10
-10 0 -19 4 -19 9 0 5 -6 4 -13 -2 -8 -6 -17 -8 -20 -4 -4 3 -7 2 -7 -4 0 -6
-9 -9 -22 -5 -15 4 -19 2 -13 -7 6 -10 3 -11 -15 -1 -18 10 -21 9 -15 -1 6 -9
3 -11 -8 -6 -10 4 -17 1 -17 -6 0 -8 -4 -6 -10 3 -5 8 -10 10 -10 4 0 -6 -6
-11 -12 -12 -51 -4 -73 -11 -70 -23 3 -11 1 -11 -8 -3 -13 13 -50 7 -50 -8 0
-7 -5 -6 -14 1 -10 9 -16 8 -25 -3 -7 -8 -21 -13 -32 -11 -10 2 -19 -1 -19 -6
0 -6 -4 -8 -9 -4 -5 3 -13 0 -17 -6 -4 -8 -9 -7 -15 2 -6 11 -9 10 -15 -4 -3
-9 -10 -17 -16 -17 -5 0 -6 6 -2 13 4 6 -1 5 -12 -4 -10 -9 -25 -14 -31 -12
-7 3 -13 0 -13 -5 0 -5 -12 -8 -27 -7 -31 1 -54 -14 -45 -30 2 -5 -1 -5 -8 2
-9 8 -19 9 -31 2 -10 -5 -22 -8 -26 -7 -4 0 -30 -8 -56 -20 -27 -12 -53 -20
-58 -16 -5 3 -9 1 -9 -3 0 -5 -9 -14 -21 -21 -14 -9 -19 -9 -14 -2 4 7 -7 5
-24 -4 -17 -9 -31 -14 -31 -11 0 3 -25 -8 -55 -24 -31 -16 -53 -25 -50 -20 4
5 1 9 -4 9 -6 0 -11 -4 -11 -9 0 -5 -14 -12 -30 -16 -17 -4 -28 -11 -25 -16 4
-5 -1 -6 -9 -3 -9 3 -16 1 -16 -6 0 -6 -4 -9 -8 -6 -5 3 -25 -4 -46 -15 -20
-11 -42 -16 -48 -13 -6 4 -8 3 -4 -4 3 -6 2 -13 -4 -17 -5 -3 -10 0 -10 7 0 8
-5 6 -11 -4 -5 -10 -21 -18 -33 -18 -13 0 -26 -7 -30 -15 -3 -9 -12 -12 -22
-8 -12 4 -15 3 -10 -5 6 -11 -5 -17 -26 -13 -5 0 -8 -3 -8 -8 0 -6 -9 -8 -20
-6 -11 2 -18 0 -15 -4 2 -5 -9 -14 -25 -21 -16 -7 -27 -17 -23 -23 3 -6 1 -7
-5 -3 -13 8 -82 -22 -82 -35 0 -5 -9 -9 -20 -9 -11 0 -23 -7 -26 -15 -4 -8
-10 -13 -14 -10 -5 3 -15 -1 -23 -9 -8 -8 -17 -12 -21 -9 -3 3 -8 -2 -12 -11
-3 -9 -10 -14 -14 -11 -4 3 -13 -2 -20 -10 -7 -8 -16 -12 -21 -9 -5 3 -9 0 -9
-5 0 -6 -7 -11 -15 -11 -9 0 -18 -7 -21 -15 -4 -8 -10 -13 -14 -10 -4 3 -13
-2 -20 -10 -7 -8 -16 -12 -21 -9 -5 3 -9 -2 -9 -11 0 -9 -4 -14 -9 -10 -5 3
-12 1 -16 -5 -4 -6 -11 -8 -16 -4 -5 3 -8 0 -7 -8 2 -7 -3 -12 -9 -10 -7 1
-13 -3 -13 -9 0 -5 -3 -8 -7 -6 -11 7 -33 -19 -25 -27 3 -4 -1 -4 -11 0 -10 3
-17 1 -17 -5 0 -6 -6 -11 -14 -11 -8 0 -17 -7 -20 -16 -3 -8 -10 -13 -15 -10
-5 3 -12 -1 -15 -10 -4 -9 -9 -14 -13 -10 -3 3 -12 -3 -20 -14 -8 -11 -23 -20
-34 -20 -11 0 -17 -4 -14 -10 3 -5 1 -10 -5 -10 -6 0 -20 -9 -32 -20 -12 -11
-28 -20 -35 -20 -8 0 -12 -3 -10 -7 3 -5 -1 -14 -9 -21 -8 -7 -14 -9 -14 -5 0
4 -5 0 -11 -9 -5 -10 -17 -18 -24 -18 -8 0 -15 -7 -15 -16 0 -8 -4 -13 -8 -10
-5 3 -28 -12 -52 -34 -24 -22 -48 -36 -53 -33 -6 4 -8 0 -4 -10 5 -13 1 -17
-14 -17 -11 0 -17 -4 -14 -10 6 -9 -8 -14 -27 -11 -5 0 -7 -2 -6 -7 2 -4 -10
-19 -25 -34 -15 -15 -27 -25 -27 -23 0 3 -21 -15 -46 -40 -25 -25 -49 -45 -54
-45 -5 0 -12 -9 -15 -21 -5 -14 -12 -18 -23 -14 -9 3 -13 3 -10 -1 9 -9 -53
-70 -66 -66 -6 2 -8 1 -4 -3 4 -4 -22 -36 -58 -72 -35 -35 -64 -69 -64 -74 0
-6 -4 -7 -10 -4 -5 3 -10 -1 -10 -10 0 -9 -4 -13 -10 -10 -5 3 -10 -1 -10 -9
0 -9 -8 -16 -17 -16 -9 0 -14 -3 -10 -6 6 -6 -21 -38 -95 -114 -21 -21 -38
-41 -38 -45 0 -4 -10 -16 -22 -27 -13 -11 -16 -17 -8 -13 8 4 6 -1 -5 -10 -11
-9 -19 -20 -18 -25 2 -5 -6 -12 -17 -15 -12 -4 -20 -15 -20 -27 0 -12 -3 -18
-7 -15 -3 4 -21 -13 -38 -38 -18 -24 -36 -41 -40 -37 -5 4 -5 2 -1 -5 3 -6 2
-14 -4 -18 -6 -4 -7 -11 -4 -17 4 -6 2 -8 -3 -5 -10 7 -28 -20 -25 -35 1 -5
-5 -8 -13 -8 -8 0 -15 -7 -15 -15 0 -8 -4 -15 -10 -15 -5 0 -9 -6 -7 -12 1 -7
-4 -12 -10 -11 -7 2 -12 0 -12 -5 3 -20 -2 -32 -13 -26 -6 4 -8 3 -4 -4 3 -6
-1 -17 -9 -25 -8 -9 -15 -20 -15 -26 0 -6 -4 -11 -10 -11 -5 0 -9 -6 -7 -12 1
-7 -4 -12 -11 -10 -8 1 -11 -2 -8 -7 4 -5 0 -16 -8 -24 -8 -8 -12 -17 -9 -21
3 -3 -2 -8 -11 -12 -9 -3 -13 -10 -10 -15 3 -5 -1 -12 -10 -15 -9 -3 -12 -12
-9 -21 4 -11 2 -14 -5 -9 -7 4 -12 2 -12 -5 0 -7 -8 -21 -17 -32 -13 -15 -14
-18 -3 -12 8 5 -1 -11 -20 -35 -19 -24 -28 -41 -20 -36 9 4 8 2 -2 -7 -10 -8
-15 -17 -11 -20 3 -4 0 -7 -7 -7 -7 0 -10 -3 -7 -7 4 -3 -3 -17 -15 -30 -12
-13 -16 -23 -10 -23 7 0 3 -9 -8 -20 -12 -12 -18 -25 -15 -30 4 -6 1 -10 -4
-10 -6 0 -11 -7 -11 -15 0 -8 -5 -15 -12 -15 -6 0 -8 -3 -5 -6 3 -4 0 -16 -8
-28 -8 -11 -15 -29 -15 -39 0 -10 -4 -15 -10 -12 -10 6 -14 -7 -11 -32 1 -7
-5 -13 -13 -13 -9 0 -12 -7 -9 -20 3 -11 1 -20 -5 -20 -6 0 -9 -11 -8 -24 2
-18 -1 -23 -12 -18 -9 3 -13 1 -9 -5 4 -6 1 -17 -6 -25 -7 -7 -12 -23 -11 -35
1 -12 -2 -20 -6 -18 -11 7 -22 -43 -14 -57 4 -7 3 -8 -4 -4 -7 4 -12 2 -12 -4
0 -6 -4 -9 -9 -6 -5 4 -7 -4 -4 -15 4 -15 0 -27 -12 -35 -14 -10 -15 -14 -4
-14 10 -1 9 -5 -5 -15 -14 -11 -16 -15 -5 -15 12 0 12 -2 0 -9 -8 -5 -10 -14
-6 -22 6 -8 4 -11 -6 -7 -11 4 -14 -4 -13 -33 0 -21 -4 -37 -10 -36 -5 1 -11
-5 -12 -13 0 -8 -2 -17 -3 -20 -6 -12 -13 -47 -15 -67 0 -11 -5 -19 -10 -15
-5 3 -7 -2 -3 -11 4 -12 1 -17 -11 -18 -11 0 -13 -2 -4 -6 10 -4 9 -10 -5 -26
-10 -11 -12 -17 -5 -13 6 4 12 3 12 -3 0 -5 -8 -15 -17 -20 -10 -6 -12 -11 -6
-11 9 0 10 -7 3 -24 -5 -13 -6 -27 -2 -31 3 -3 -2 -3 -13 1 -16 6 -18 4 -8 -6
7 -8 9 -19 4 -29 -5 -9 -7 -24 -6 -34 2 -9 -1 -15 -5 -12 -5 3 -11 1 -15 -5
-3 -5 -1 -10 6 -10 8 0 8 -4 -1 -15 -7 -8 -10 -22 -6 -30 3 -8 1 -15 -5 -15
-6 0 -9 -6 -6 -14 3 -7 0 -19 -6 -25 -8 -8 -7 -11 4 -11 8 0 10 -3 4 -8 -20
-14 -35 -51 -24 -57 7 -5 6 -11 -2 -21 -6 -8 -8 -14 -3 -14 4 0 3 -5 -4 -12
-16 -16 -16 -41 1 -32 7 5 7 1 -2 -10 -13 -16 -20 -49 -22 -98 0 -10 -5 -18
-11 -18 -6 0 -6 -6 2 -15 8 -10 9 -15 2 -15 -7 0 -9 -7 -5 -17 5 -12 3 -14 -8
-8 -11 6 -11 5 -2 -5 14 -15 6 -43 -10 -33 -6 4 -7 1 -2 -8 11 -17 14 -50 5
-44 -4 2 -6 -20 -6 -50 1 -30 -3 -51 -8 -47 -5 3 -7 -2 -3 -11 4 -10 2 -17 -5
-17 -7 0 -7 -4 1 -13 6 -8 9 -16 7 -18 -3 -3 -7 -17 -10 -33 -3 -16 -8 -31
-11 -34 -3 -3 3 -14 12 -24 14 -15 14 -19 3 -16 -8 2 -14 -3 -12 -11 1 -7 -2
-19 -8 -26 -8 -9 -7 -14 1 -17 8 -3 9 -9 4 -18 -5 -8 -9 -32 -8 -52 1 -26 -2
-36 -10 -32 -8 5 -8 2 1 -7 13 -14 17 -33 4 -25 -4 2 -8 -4 -8 -14 0 -10 4
-16 8 -14 4 3 4 -6 -1 -19 -13 -33 -11 -687 1 -711 7 -14 7 -16 -2 -11 -9 6
-9 2 -1 -14 8 -14 8 -21 1 -21 -5 0 -10 -5 -10 -11 0 -5 5 -7 10 -4 14 9 12
-8 -2 -24 -7 -8 -8 -11 -2 -8 6 4 11 -12 12 -41 2 -26 4 -65 5 -87 1 -22 6
-43 12 -47 6 -5 5 -8 -3 -8 -10 0 -10 -5 -2 -20 6 -11 7 -20 3 -20 -4 0 -2 -5
5 -12 8 -8 8 -17 0 -31 -7 -14 -7 -22 3 -28 10 -6 10 -11 1 -22 -10 -11 -9
-17 3 -27 12 -10 13 -16 3 -28 -10 -13 -10 -14 0 -8 7 4 12 1 12 -8 0 -9 -6
-16 -12 -16 -9 0 -9 -3 1 -9 8 -5 16 -27 17 -48 1 -21 2 -46 3 -56 1 -11 6
-15 12 -11 8 5 8 1 0 -14 -7 -13 -7 -23 -2 -27 6 -3 8 -14 6 -25 -2 -10 3 -24
11 -31 9 -8 11 -16 5 -23 -6 -7 -6 -18 -1 -25 4 -8 6 -20 3 -28 -3 -7 1 -13 8
-13 11 0 11 -3 -1 -10 -8 -5 -10 -10 -3 -10 6 0 10 -13 9 -31 -1 -18 4 -34 13
-39 12 -7 13 -9 2 -10 -11 0 -11 -3 -1 -15 6 -8 9 -19 6 -24 -4 -5 -2 -13 4
-16 8 -5 7 -12 -2 -23 -10 -12 -10 -14 0 -8 7 4 13 2 14 -6 0 -7 2 -17 2 -23
1 -5 5 -16 9 -22 5 -8 3 -13 -3 -13 -6 0 -4 -7 5 -16 9 -9 14 -23 11 -30 -3
-8 0 -14 6 -14 7 0 7 -4 -1 -14 -9 -10 -8 -16 4 -26 8 -7 12 -16 9 -21 -3 -5
1 -9 8 -9 9 0 9 -3 -2 -10 -10 -6 -11 -10 -2 -10 6 0 11 -3 11 -7 -4 -22 2
-33 14 -27 9 6 9 4 -1 -8 -9 -12 -10 -18 -2 -23 6 -4 9 -13 6 -21 -3 -8 -1
-14 5 -14 6 0 9 -6 6 -14 -3 -7 1 -23 8 -34 8 -10 11 -22 8 -26 -3 -3 -2 -6 4
-6 6 0 9 -9 5 -22 -3 -14 -1 -19 6 -14 8 5 10 2 6 -8 -3 -9 -1 -16 4 -16 6 0
9 -9 7 -20 -2 -11 1 -20 6 -20 6 0 8 -3 6 -8 -3 -4 3 -24 13 -45 10 -21 13
-35 7 -31 -7 3 -4 -1 5 -9 14 -11 15 -16 5 -26 -9 -10 -9 -12 3 -9 10 2 14 -3
12 -14 -2 -10 2 -18 9 -18 6 0 9 -7 5 -15 -3 -8 -1 -15 5 -15 6 0 7 -4 4 -10
-3 -5 -1 -10 6 -10 7 0 10 -3 6 -6 -3 -3 3 -22 14 -41 11 -19 14 -31 8 -28 -6
4 -3 -4 6 -19 9 -14 15 -32 12 -40 -4 -10 -1 -13 7 -10 18 7 32 -16 16 -26 -8
-5 -7 -9 5 -14 11 -4 15 -13 12 -26 -3 -10 1 -24 9 -31 8 -6 11 -15 8 -20 -3
-5 -2 -9 3 -8 20 3 27 -2 13 -11 -13 -9 -13 -10 0 -10 9 0 16 -10 17 -21 1
-12 9 -29 17 -38 9 -10 16 -21 16 -26 0 -5 8 -17 18 -28 12 -15 13 -18 2 -12
-11 6 -10 3 3 -12 9 -11 17 -25 17 -31 0 -7 5 -12 11 -12 5 0 7 -4 4 -10 -3
-5 -1 -10 5 -10 6 0 8 -4 5 -10 -3 -5 -1 -10 5 -10 6 0 9 -4 6 -9 -4 -5 -3
-11 1 -13 5 -1 19 -23 32 -48 14 -25 31 -51 38 -58 7 -8 11 -18 8 -23 -4 -5
-1 -9 4 -9 6 0 11 -5 11 -10 0 -6 9 -20 20 -32 10 -12 17 -25 14 -30 -3 -4 0
-8 7 -8 7 0 10 -3 6 -6 -3 -3 3 -15 14 -27 10 -11 19 -27 19 -34 0 -8 5 -11
10 -8 6 3 10 -1 10 -9 0 -9 5 -16 11 -16 5 0 8 -4 4 -9 -3 -5 6 -21 20 -35 14
-14 23 -26 19 -26 -4 0 3 -9 16 -20 13 -11 19 -20 15 -20 -4 0 -1 -8 8 -18 10
-10 14 -22 10 -25 -3 -4 1 -7 11 -7 9 0 15 -4 12 -9 -3 -5 1 -11 9 -14 7 -3
22 -21 31 -39 9 -18 25 -40 35 -49 11 -9 19 -19 19 -23 0 -7 25 -38 58 -72 13
-13 20 -24 17 -24 -3 0 12 -18 34 -40 22 -22 37 -40 34 -40 -4 0 6 -10 20 -23
15 -12 27 -28 27 -35 0 -7 7 -12 16 -12 8 0 12 -4 9 -10 -3 -6 -1 -10 5 -10 6
0 8 -5 5 -10 -4 -6 -3 -9 2 -8 4 2 20 -10 35 -25 15 -15 25 -27 22 -27 -3 0 1
-6 8 -14 7 -8 16 -12 21 -9 4 2 7 -1 7 -6 0 -15 107 -121 114 -114 3 4 6 1 6
-6 0 -15 45 -61 60 -61 6 0 10 -3 8 -7 -2 -5 12 -24 31 -43 19 -19 31 -28 25
-20 -6 11 -3 10 7 -2 9 -9 20 -14 24 -10 3 4 5 2 3 -3 -4 -13 29 -48 60 -64
12 -7 20 -16 17 -22 -4 -5 -1 -9 5 -9 12 0 32 -15 58 -42 9 -10 23 -18 32 -18
13 0 13 -1 0 -10 -12 -8 -10 -10 8 -10 13 0 20 -4 17 -10 -3 -5 0 -10 7 -10 8
0 20 -9 28 -19 7 -11 17 -18 22 -15 4 3 8 1 8 -4 0 -5 12 -14 26 -20 15 -7 22
-17 18 -24 -4 -7 -3 -8 4 -4 7 4 12 3 12 -2 0 -5 11 -15 25 -22 13 -7 22 -17
19 -22 -3 -5 -2 -8 3 -6 15 4 83 -44 76 -55 -3 -6 -1 -7 5 -3 7 4 12 2 12 -4
0 -6 4 -9 9 -6 5 3 23 -8 41 -24 18 -16 36 -27 41 -24 5 3 9 0 9 -6 0 -6 12
-16 28 -23 15 -6 33 -20 40 -30 7 -9 17 -15 22 -12 5 3 14 -4 20 -15 6 -11 20
-20 30 -20 11 0 20 -4 20 -10 0 -5 9 -10 21 -10 11 0 17 -4 14 -10 -3 -5 1
-10 9 -10 9 0 16 -5 16 -12 0 -6 3 -8 7 -5 3 4 13 1 22 -7 9 -8 23 -16 31 -18
8 -2 22 -11 31 -20 9 -10 19 -15 23 -11 3 3 6 1 6 -6 0 -7 5 -9 10 -6 6 3 10
1 10 -4 0 -6 7 -11 16 -11 8 0 13 -4 10 -8 -2 -4 5 -9 16 -9 12 -1 25 -8 29
-15 5 -7 9 -8 9 -3 0 6 7 2 14 -8 8 -10 17 -18 20 -18 24 3 36 -1 31 -9 -5 -9
15 -15 38 -11 4 0 7 -3 7 -9 0 -5 7 -10 15 -10 8 0 15 -5 15 -11 0 -5 4 -7 10
-4 6 3 10 1 10 -5 0 -6 4 -9 9 -5 5 3 16 -2 25 -10 8 -8 19 -15 23 -14 17 4
43 -14 36 -25 -4 -6 1 -5 10 3 15 12 17 11 17 -3 0 -10 4 -14 10 -11 5 3 20
-1 33 -10 13 -8 27 -12 30 -8 4 3 7 1 7 -6 0 -7 5 -9 10 -6 6 3 10 1 10 -5 0
-6 5 -8 10 -5 6 3 10 2 10 -4 0 -6 7 -7 17 -4 12 5 14 3 8 -7 -6 -10 -4 -12 8
-7 10 4 17 2 17 -4 0 -6 7 -9 15 -5 8 3 15 2 15 -3 0 -5 12 -12 27 -16 15 -3
43 -14 63 -24 20 -10 45 -16 54 -15 10 1 16 -3 13 -10 -3 -7 4 -13 17 -13 11
-1 28 -4 36 -6 8 -3 26 -8 40 -13 14 -4 27 -6 29 -5 2 2 7 -2 11 -9 4 -6 17
-12 28 -13 12 -1 22 -4 22 -8 0 -4 10 -5 22 -1 14 3 19 1 14 -6 -5 -8 -2 -10
8 -6 9 3 16 1 16 -4 0 -6 9 -9 20 -7 11 2 20 -1 20 -6 0 -6 5 -7 10 -4 6 3 10
1 10 -6 0 -9 3 -9 14 0 10 8 15 9 18 1 2 -6 13 -12 26 -13 12 0 22 -4 22 -8 0
-4 12 -6 27 -6 15 0 29 -6 31 -12 3 -9 7 -9 18 0 11 9 14 9 14 -1 0 -7 7 -10
16 -6 9 3 12 2 9 -5 -4 -6 2 -8 18 -4 14 4 28 2 31 -4 4 -6 18 -11 32 -11 13
0 24 -4 24 -8 0 -4 12 -8 28 -7 15 0 33 -6 40 -15 8 -8 11 -10 8 -3 -4 7 1 11
14 10 11 -1 20 -5 20 -10 0 -4 4 -6 9 -2 5 3 12 1 16 -5 3 -5 11 -10 16 -10 6
0 7 6 3 13 -5 8 -2 8 9 -2 9 -7 17 -10 17 -6 0 4 6 3 13 -4 10 -8 17 -7 27 2
10 10 11 9 5 -1 -5 -10 -2 -13 11 -10 11 2 24 -3 30 -11 9 -11 12 -12 19 -1 6
9 4 11 -5 5 -9 -6 -11 -4 -6 4 6 9 12 9 24 -2 10 -8 27 -13 40 -12 12 1 22 -2
22 -6 0 -4 9 -5 20 -2 11 3 20 0 20 -6 0 -7 8 -8 26 -1 16 6 23 6 19 0 -3 -5
9 -8 30 -6 20 1 38 -2 42 -6 3 -5 11 -7 18 -4 7 2 18 -1 24 -7 8 -8 11 -7 11
4 0 12 2 12 10 -1 5 -8 10 -12 10 -8 0 4 11 3 25 -2 17 -7 25 -6 25 1 0 8 4 8
13 2 6 -6 20 -9 29 -8 10 2 20 -1 24 -6 3 -5 12 -5 23 1 10 5 21 7 25 3 3 -3
31 -8 63 -10 32 -2 59 -6 62 -8 2 -3 10 0 18 7 10 8 12 8 8 -3 -4 -11 3 -14
29 -13 19 1 39 5 45 9 6 3 11 2 11 -4 0 -6 7 -7 17 -4 12 5 14 3 8 -8 -8 -12
-6 -12 8 0 9 7 17 10 17 5 0 -5 5 -2 10 6 7 11 10 11 10 2 0 -7 5 -10 10 -7 6
3 10 0 10 -7 0 -10 2 -10 9 1 7 11 9 11 14 0 4 -10 6 -8 6 4 1 17 2 17 17 2
14 -13 19 -14 25 -3 7 10 9 10 9 0 0 -10 5 -10 21 -1 16 8 20 8 14 0 -5 -8 1
-10 19 -5 16 4 33 1 43 -7 12 -10 15 -10 9 -1 -6 9 5 11 46 8 34 -3 55 0 60 7
6 9 8 9 8 -1 0 -7 5 -10 10 -7 6 3 10 1 10 -6 0 -8 3 -9 13 0 8 6 17 8 20 4 4
-3 13 0 21 6 11 10 16 9 24 -5 6 -10 12 -13 16 -6 3 5 16 8 28 4 16 -4 19 -2
13 9 -6 11 -5 12 6 1 15 -14 33 -16 25 -3 -4 5 3 7 14 4 11 -3 17 -9 14 -14
-3 -5 2 -6 10 -3 9 3 16 11 16 17 0 7 4 7 12 -1 16 -16 31 -15 22 1 -5 8 -2 8
9 -2 12 -9 17 -10 17 -2 0 8 5 9 19 2 15 -8 20 -7 25 6 6 14 8 14 24 -1 14
-12 21 -13 30 -4 7 7 12 9 12 5 0 -4 9 -3 20 3 14 8 20 8 20 0 0 -8 6 -8 20 0
14 8 20 8 20 0 0 -6 5 -8 12 -4 6 4 28 9 47 11 88 8 167 14 184 14 9 0 16 3
13 7 -2 4 10 6 27 6 18 -1 38 4 46 10 11 8 15 8 18 -1 3 -9 10 -10 24 -3 14 8
19 7 19 -2 0 -10 2 -10 9 1 5 7 14 10 20 7 6 -4 11 -2 11 5 0 8 5 7 17 -2 9
-8 14 -9 10 -3 -9 15 17 26 31 12 6 -6 12 -6 16 1 4 5 14 7 23 4 11 -5 14 -3
8 6 -6 10 -3 11 14 2 11 -7 21 -8 21 -3 0 6 9 12 20 15 11 3 20 0 20 -6 0 -8
3 -8 11 0 6 6 18 9 27 6 9 -4 13 -2 9 4 -4 7 2 11 16 11 55 1 76 5 72 12 -3 5
4 6 15 3 11 -3 20 0 20 6 0 9 5 9 20 1 15 -8 20 -8 20 1 0 6 7 9 15 5 8 -3 15
-1 15 5 0 6 7 9 15 6 8 -4 17 -2 20 3 3 5 13 6 22 3 11 -4 14 -3 9 5 -5 8 -2
10 9 6 8 -4 22 -1 30 6 12 10 15 10 15 -1 1 -10 4 -8 11 4 5 9 15 17 22 17 7
0 6 -4 -3 -10 -9 -6 -10 -10 -3 -10 6 0 14 4 17 9 3 5 23 12 43 16 21 4 44 12
52 18 12 10 13 9 6 -3 -7 -12 -5 -12 11 1 10 9 24 14 31 12 6 -2 14 0 17 6 4
6 13 8 21 4 8 -3 15 -1 15 5 0 6 11 9 25 7 14 -1 28 2 32 8 4 6 1 7 -7 2 -8
-5 -11 -4 -6 3 3 6 15 9 26 7 11 -2 20 0 20 5 0 5 7 7 15 4 8 -4 15 -1 15 5 0
6 7 8 15 5 8 -4 15 -1 15 5 0 6 7 8 15 5 8 -4 15 -1 15 5 0 6 3 10 8 10 21 -4
42 3 56 17 11 10 16 11 16 3 0 -8 6 -6 19 5 10 9 22 16 27 15 22 -4 35 2 28
13 -4 7 -3 8 5 4 6 -4 18 -2 26 4 8 7 15 9 15 5 0 -4 11 0 25 9 13 9 31 16 40
16 8 0 15 4 15 10 0 5 7 7 15 4 8 -4 15 -1 15 5 0 6 3 10 8 9 14 -3 62 14 62
23 0 5 7 9 15 9 9 0 34 9 55 20 22 11 40 17 40 13 0 -4 7 2 15 13 8 10 15 15
15 10 0 -4 11 -1 25 8 14 9 29 14 34 11 5 -2 12 2 15 11 3 8 10 13 15 10 5 -4
11 -1 13 4 2 6 13 12 26 13 13 1 21 6 18 13 -3 7 3 10 15 7 11 -3 19 0 19 6 0
9 5 9 20 1 15 -8 18 -15 11 -27 -5 -9 -5 -29 -1 -45 5 -15 6 -28 2 -28 -9 0
-8 -53 1 -67 4 -6 3 -13 0 -17 -10 -10 -13 -36 -4 -36 4 0 8 -7 8 -15 0 -8 -4
-15 -8 -15 -8 0 -6 -26 3 -36 4 -3 5 -11 2 -18 -9 -22 -10 -85 -2 -80 11 7 10
-7 -2 -26 -5 -9 -5 -19 2 -27 6 -7 6 -13 1 -13 -12 0 -11 -83 2 -92 6 -5 5 -8
-4 -8 -10 0 -11 -3 -2 -14 8 -9 8 -16 2 -20 -7 -4 -7 -15 -1 -31 5 -14 5 -27
1 -30 -10 -6 -9 -31 2 -41 3 -4 2 -15 -4 -25 -7 -13 -6 -19 1 -19 6 0 8 -5 3
-12 -8 -15 -7 -93 2 -108 3 -6 0 -10 -7 -10 -10 0 -10 -2 -1 -8 8 -5 9 -13 3
-22 -5 -9 -5 -19 2 -27 6 -7 7 -13 2 -13 -10 0 -9 -103 1 -119 3 -6 3 -11 -2
-11 -9 0 -8 -124 2 -139 3 -6 2 -11 -2 -11 -5 0 -9 -11 -9 -25 0 -14 3 -25 6
-25 4 0 7 -7 7 -15 0 -8 -4 -12 -8 -9 -4 2 -7 -5 -6 -16 1 -11 5 -20 10 -20 5
0 5 -6 -1 -12 -5 -7 -8 -28 -6 -45 2 -22 -1 -33 -9 -33 -8 0 -7 -4 3 -10 13
-9 13 -10 0 -10 -13 0 -13 -1 0 -10 12 -8 12 -10 -5 -11 -15 0 -16 -2 -5 -7 8
-4 16 -13 18 -20 1 -8 -2 -11 -7 -8 -6 4 -9 -5 -7 -21 1 -16 -2 -34 -7 -40 -6
-9 -5 -13 3 -13 9 0 10 -3 1 -13 -6 -8 -9 -23 -6 -35 2 -12 1 -22 -3 -22 -4 0
-7 -12 -7 -27 -1 -63 -17 -146 -26 -132 -5 8 -9 10 -9 4 0 -5 4 -17 10 -25 6
-9 5 -20 -3 -29 -10 -12 -9 -13 3 -6 13 8 13 7 1 -9 -8 -10 -16 -25 -17 -34
-5 -45 -16 -88 -27 -101 -10 -12 -9 -13 3 -6 12 7 13 6 3 -7 -7 -8 -10 -18 -6
-21 3 -4 1 -7 -4 -7 -6 0 -10 -8 -8 -17 1 -10 -2 -24 -8 -30 -5 -7 -7 -13 -3
-13 4 0 -2 -12 -11 -27 -14 -21 -15 -25 -3 -18 12 7 13 6 3 -7 -7 -8 -10 -18
-6 -21 3 -4 2 -7 -3 -7 -9 0 -40 -88 -36 -102 1 -5 -3 -8 -9 -8 -6 0 -9 -7 -6
-15 4 -8 1 -17 -5 -21 -7 -5 -8 -2 -3 7 5 8 4 11 0 6 -5 -4 -10 -18 -12 -30
-2 -12 -8 -24 -13 -25 -6 -2 -10 -8 -10 -13 0 -6 6 -7 13 -4 6 4 4 0 -5 -8
-10 -8 -15 -17 -11 -20 3 -4 1 -7 -5 -7 -6 0 -9 -6 -6 -14 3 -8 0 -17 -5 -21
-6 -3 -9 -11 -6 -16 4 -5 -2 -6 -11 -2 -13 5 -16 3 -11 -10 3 -9 -3 -27 -14
-40 -10 -14 -19 -31 -19 -39 0 -8 -8 -23 -18 -34 -19 -20 -22 -26 -22 -45 0
-5 -4 -7 -10 -4 -8 5 -15 -19 -7 -28 1 -2 -11 -15 -27 -30 -16 -15 -25 -27
-21 -27 5 0 0 -7 -11 -16 -10 -8 -12 -13 -4 -9 10 4 9 2 -2 -8 -10 -8 -18 -19
-18 -24 0 -6 -10 -18 -22 -27 -13 -9 -16 -14 -8 -11 12 5 12 4 -1 -7 -8 -7
-24 -25 -33 -40 -10 -15 -22 -25 -27 -22 -5 3 -9 2 -8 -3 3 -20 -2 -34 -11
-28 -5 3 -10 1 -10 -6 0 -6 -11 -22 -24 -34 -14 -13 -22 -26 -19 -29 4 -3 -1
-6 -11 -6 -9 0 -14 -4 -11 -10 3 -5 0 -10 -8 -10 -7 0 -20 -11 -27 -25 -7 -14
-15 -23 -17 -21 -6 6 -88 -78 -85 -87 1 -5 -2 -6 -8 -2 -5 3 -10 1 -10 -6 0
-7 -3 -10 -6 -6 -3 3 -17 -6 -30 -20 -13 -14 -24 -23 -24 -19 0 4 -10 -4 -22
-17 -13 -13 -31 -26 -40 -30 -10 -3 -18 -11 -18 -18 0 -6 -7 -8 -16 -5 -8 3
-12 2 -9 -4 3 -6 -1 -10 -10 -10 -9 0 -14 -4 -11 -9 3 -5 -5 -12 -19 -15 -14
-4 -25 -11 -25 -16 0 -6 -7 -10 -15 -10 -8 0 -15 -5 -15 -11 0 -5 -5 -7 -10
-4 -6 3 -13 -1 -16 -9 -3 -9 -10 -13 -15 -10 -5 3 -9 0 -9 -6 0 -6 -4 -9 -9
-6 -5 4 -11 1 -13 -4 -2 -6 -13 -12 -25 -12 -14 -2 -19 -7 -15 -18 3 -8 2 -12
-3 -8 -4 4 -15 2 -23 -5 -13 -10 -15 -9 -8 3 4 9 2 8 -7 -2 -8 -10 -17 -15
-20 -11 -4 3 -9 -1 -13 -10 -3 -9 -12 -13 -20 -10 -8 3 -14 0 -14 -7 0 -6 -4
-9 -9 -5 -5 3 -12 1 -16 -5 -4 -6 -10 -8 -15 -5 -4 3 -11 -2 -14 -11 -3 -8
-10 -13 -14 -10 -5 3 -25 -4 -46 -15 -20 -11 -41 -17 -47 -14 -5 4 -12 -1 -15
-9 -3 -9 -10 -13 -15 -10 -5 3 -15 2 -21 -3 -14 -8 -19 -10 -43 -12 -8 0 -24
-11 -36 -23 -12 -13 -19 -17 -15 -10 8 14 -3 16 -24 2 -9 -6 -20 -5 -29 3 -12
9 -13 9 -8 0 10 -16 -59 -35 -146 -42 -5 -1 -5 -5 -2 -11 3 -5 1 -10 -4 -10
-6 0 -11 6 -11 13 0 8 -3 9 -8 1 -4 -6 -14 -12 -22 -12 -41 -4 -72 -11 -85
-22 -9 -8 -15 -8 -20 0 -4 6 -12 7 -18 2 -7 -4 -28 -8 -49 -8 -20 1 -34 -2
-32 -6 3 -4 -8 -6 -23 -4 -16 1 -36 -1 -45 -6 -12 -6 -18 -5 -18 2 0 6 -5 8
-12 3 -21 -12 -41 -13 -57 0 -10 8 -13 8 -8 1 4 -7 -2 -14 -13 -17 -11 -3 -18
-2 -15 2 2 4 -2 8 -10 8 -8 0 -12 -4 -9 -9 3 -4 0 -8 -5 -8 -6 0 -11 6 -12 13
0 6 -4 3 -9 -8 -5 -11 -9 -14 -9 -7 -1 14 -37 12 -60 -2 -9 -6 -12 -5 -8 1 7
11 -112 11 -130 0 -6 -4 -15 -2 -19 4 -5 8 -3 9 6 4 9 -5 11 -4 6 4 -6 9 -11
9 -22 0 -8 -6 -14 -8 -14 -4 0 4 -6 2 -14 -4 -11 -10 -17 -8 -25 6 -6 10 -11
13 -11 6 0 -11 -36 -10 -48 1 -2 3 -13 1 -23 -5 -13 -6 -19 -6 -19 1 0 5 -5
10 -11 10 -5 0 -7 -5 -3 -11 4 -8 0 -8 -15 0 -11 7 -21 8 -21 4 0 -4 -5 -1
-10 7 -5 8 -10 10 -10 4 0 -6 -7 -11 -15 -11 -8 0 -15 4 -15 9 0 5 -9 4 -20
-2 -15 -8 -20 -8 -20 1 0 6 -7 8 -16 5 -9 -4 -24 -1 -32 6 -14 11 -15 10 -8
-6 6 -19 6 -19 -12 -3 -10 9 -22 14 -25 11 -4 -4 -14 -1 -24 7 -11 9 -14 10
-9 2 4 -7 3 -13 -3 -13 -5 0 -12 4 -16 10 -3 5 -12 7 -20 3 -9 -3 -23 1 -32 8
-14 12 -16 12 -8 -1 7 -13 6 -13 -7 -2 -13 10 -17 10 -21 0 -4 -11 -6 -10 -6
0 -1 7 -5 10 -11 7 -5 -3 -10 -2 -10 3 0 6 -13 9 -30 8 -16 -1 -30 2 -30 7 0
4 -4 6 -9 2 -5 -3 -13 -1 -16 5 -5 8 -11 7 -21 -1 -11 -9 -14 -9 -14 0 0 7 -4
10 -9 7 -5 -3 -14 1 -21 9 -7 8 -17 12 -24 8 -18 -12 -36 -12 -36 -1 0 6 -7 8
-15 4 -8 -3 -19 2 -24 12 -7 12 -10 13 -11 3 0 -10 -3 -11 -13 -2 -8 6 -17 8
-20 4 -4 -3 -7 -1 -7 4 0 6 -11 10 -25 8 -17 -1 -29 4 -36 16 -8 15 -14 17
-29 9 -14 -7 -20 -7 -20 0 0 5 -9 10 -20 10 -11 0 -20 5 -20 11 0 5 -4 7 -10
4 -5 -3 -22 1 -38 9 -16 8 -32 12 -36 9 -3 -4 -6 -1 -6 6 0 7 -4 9 -10 6 -5
-3 -10 0 -10 7 0 9 -3 9 -10 -2 -8 -13 -10 -13 -10 1 0 9 -6 16 -12 16 -16 -2
-90 34 -100 48 -4 6 -8 6 -8 2 0 -4 -10 -2 -22 5 -13 7 -26 11 -30 10 -5 -1
-8 4 -8 11 0 7 -8 13 -18 14 -10 1 -42 17 -72 37 -29 19 -56 33 -60 31 -3 -2
-13 5 -20 16 -8 10 -20 19 -28 19 -7 0 -10 5 -6 12 4 6 3 8 -4 4 -6 -3 -16 0
-24 7 -7 8 -24 19 -36 26 -13 7 -20 17 -16 23 5 7 2 9 -8 5 -10 -3 -23 3 -34
18 -10 13 -21 22 -24 20 -3 -2 -21 12 -39 31 -19 19 -38 34 -42 34 -5 0 -9 8
-9 17 0 9 -3 14 -6 10 -7 -7 -74 58 -74 73 0 6 -4 9 -8 6 -5 -3 -15 4 -23 16
-8 11 -25 31 -39 44 -14 13 -22 24 -18 24 4 0 -4 11 -17 25 -14 13 -25 29 -25
35 0 5 -7 10 -16 10 -8 0 -12 5 -9 10 3 6 1 10 -5 10 -6 0 -9 3 -7 8 5 8 -18
33 -25 27 -2 -2 -4 5 -5 15 -1 11 -13 32 -27 47 -14 15 -26 31 -26 35 0 5 0
10 0 13 0 3 -9 14 -20 25 -12 12 -18 25 -15 30 3 4 2 10 -2 12 -11 4 -73 128
-73 145 0 8 -5 11 -12 7 -8 -5 -9 0 -6 14 4 12 2 22 -4 22 -5 0 -6 4 -3 10 3
5 1 10 -5 10 -7 0 -9 7 -6 16 3 8 2 12 -4 9 -6 -3 -11 3 -11 14 -1 12 -3 26
-4 31 -1 6 -3 15 -4 21 0 5 -5 8 -10 5 -4 -3 -6 6 -3 19 2 15 0 25 -7 25 -7 0
-9 5 -6 10 3 6 2 10 -4 10 -5 0 -8 9 -6 20 2 11 -1 20 -6 20 -6 0 -7 5 -4 10
3 6 0 10 -7 10 -10 0 -10 2 -1 8 9 6 8 15 -6 38 -13 22 -16 36 -9 47 6 11 5
17 -2 17 -5 0 -9 3 -9 8 5 28 -2 52 -13 46 -9 -5 -9 -3 1 9 12 15 10 18 -10
26 -15 5 -26 5 -30 -1 -4 -6 -9 -5 -12 3 -5 12 -7 12 -15 0 -6 -9 -12 -10 -16
-3 -4 6 -14 8 -22 5 -9 -3 -20 0 -25 8 -7 11 -9 10 -9 -4 0 -11 -4 -15 -12
-11 -6 4 -47 7 -91 6 -46 -1 -86 3 -94 9 -9 9 -14 7 -19 -5 -6 -16 -8 -16 -26
1 -17 15 -18 15 -13 0 5 -13 2 -15 -15 -12 -12 2 -28 10 -36 16 -12 10 -13 8
-7 -7 6 -17 5 -17 -10 -5 -14 11 -17 11 -17 0 -1 -9 -5 -8 -15 5 -11 14 -15
16 -15 5 0 -10 -11 -13 -42 -12 -108 7 -216 5 -228 -2 -8 -5 -11 -4 -7 1 3 6
-9 10 -29 10 -19 0 -34 -4 -34 -10 0 -6 -5 -5 -12 2 -14 14 -32 16 -23 3 3 -5
0 -13 -6 -17 -7 -4 -9 -3 -5 4 3 6 2 13 -4 17 -5 3 -10 1 -10 -6 0 -10 -3 -10
-11 -2 -7 7 -20 8 -34 3 -14 -5 -27 -4 -34 3 -8 8 -11 7 -11 -4 0 -12 -2 -12
-10 1 -8 12 -11 13 -19 1 -6 -9 -11 -10 -15 -3 -4 6 -14 8 -22 5 -9 -3 -20 0
-25 8 -7 11 -9 10 -9 -4 0 -11 -4 -15 -12 -11 -6 4 -47 7 -91 6 -46 -1 -86 3
-94 9 -9 9 -14 7 -19 -5 -6 -16 -8 -16 -26 1 -17 15 -18 15 -13 0 5 -13 2 -15
-15 -12 -12 2 -28 10 -36 16 -12 10 -13 8 -7 -7 6 -17 5 -17 -10 -5 -14 11
-17 11 -17 0 -1 -9 -5 -8 -15 5 -11 14 -15 16 -15 5 0 -10 -11 -13 -42 -12
-108 7 -216 5 -228 -2 -8 -5 -11 -4 -7 1 3 6 -9 10 -29 10 -19 0 -34 -4 -34
-10 0 -6 -5 -5 -12 2 -14 14 -32 16 -23 3 3 -5 0 -13 -6 -17 -7 -4 -9 -3 -5 4
3 6 2 13 -4 17 -5 3 -10 1 -10 -6 0 -10 -3 -10 -11 -2 -7 7 -20 8 -34 3 -14
-5 -27 -4 -34 3 -8 8 -11 7 -11 -4 0 -12 -2 -12 -10 1 -8 12 -11 13 -19 1 -6
-9 -11 -10 -15 -3 -4 6 -14 8 -22 5 -9 -3 -20 0 -25 8 -7 11 -9 10 -9 -4 0
-11 -4 -15 -12 -11 -6 4 -47 7 -91 6 -46 -1 -86 3 -94 9 -9 9 -14 7 -19 -5 -6
-16 -8 -16 -26 1 -17 15 -18 15 -13 0 5 -13 2 -15 -15 -12 -12 2 -28 10 -36
16 -12 10 -13 8 -7 -7 6 -17 5 -17 -10 -5 -14 11 -17 11 -17 0 -1 -9 -5 -8
-15 5 -11 14 -15 16 -15 5 0 -10 -11 -13 -42 -12 -24 1 -67 4 -96 5 -40 2 -51
0 -47 -10 3 -7 0 -10 -5 -7 -6 3 -10 14 -10 23 -1 15 -2 15 -14 -1 -10 -13
-16 -15 -21 -7 -6 9 -10 9 -16 -1 -5 -9 -9 -10 -9 -2 0 6 -9 9 -20 6 -22 -6
-26 -18 -10 -28 6 -4 7 -13 1 -23 -6 -11 -5 -24 1 -36 8 -14 7 -21 -3 -27 -11
-7 -11 -9 -1 -9 7 0 10 -4 7 -10 -3 -5 -1 -10 4 -10 6 0 11 -5 11 -11 0 -5 -6
-7 -12 -3 -9 6 -9 3 0 -9 8 -9 11 -20 8 -26 -3 -5 0 -12 6 -14 10 -4 10 -6 0
-6 -9 -1 -10 -6 -3 -19 6 -11 10 -27 10 -38 1 -41 5 -54 15 -54 6 0 4 -5 -4
-10 -8 -5 -10 -10 -5 -10 15 0 16 -40 2 -40 -7 0 -6 -4 3 -9 8 -6 18 -7 24 -4
5 4 6 1 0 -8 -12 -20 -14 -39 -3 -39 4 0 6 -6 3 -14 -3 -8 -1 -17 4 -20 5 -3
8 -19 6 -36 -2 -18 1 -30 8 -30 6 0 8 -3 5 -7 -4 -3 -1 -13 6 -21 9 -13 9 -14
0 -8 -9 5 -11 2 -7 -8 3 -9 11 -13 18 -9 8 4 8 3 0 -6 -12 -13 -4 -50 18 -95
7 -14 6 -16 -4 -10 -11 6 -11 5 0 -8 7 -9 15 -31 17 -48 2 -18 8 -37 14 -43 5
-5 7 -16 4 -23 -3 -8 0 -14 7 -14 7 0 10 -8 7 -20 -3 -11 -1 -20 5 -20 6 0 8
-7 5 -15 -4 -8 -2 -17 4 -20 5 -4 7 -10 4 -15 -3 -4 2 -11 10 -14 12 -4 13
-10 6 -25 -8 -14 -7 -20 4 -25 8 -3 12 -14 10 -26 -2 -11 -1 -20 3 -20 4 0 13
-13 19 -30 7 -18 7 -30 2 -30 -6 0 -7 -5 -4 -10 4 -6 11 -7 17 -4 7 5 9 1 5
-9 -3 -10 -2 -17 4 -17 6 0 8 -4 5 -9 -3 -4 1 -16 8 -27 8 -10 12 -24 9 -31
-3 -7 0 -13 7 -13 6 0 8 -4 5 -10 -3 -5 -1 -10 4 -10 6 0 10 -3 10 -7 -3 -18
2 -34 9 -30 4 3 8 -9 9 -26 1 -17 7 -33 12 -36 9 -6 32 -58 32 -71 0 -3 7 -12
15 -21 8 -9 16 -29 18 -43 1 -15 12 -37 24 -50 11 -14 18 -27 15 -30 -4 -3 -1
-6 6 -6 8 0 11 -7 7 -15 -3 -8 -1 -15 4 -15 6 0 10 -6 10 -14 0 -8 5 -16 12
-18 6 -2 12 -13 13 -25 0 -11 9 -28 18 -37 9 -10 17 -24 17 -32 0 -8 4 -12 10
-9 6 3 10 -3 10 -14 0 -12 4 -21 10 -21 5 0 9 -3 9 -7 -3 -19 2 -34 9 -29 4 2
18 -18 30 -45 13 -27 25 -49 28 -49 3 0 2 5 -2 12 -4 7 -3 8 5 4 6 -4 9 -11 6
-16 -3 -5 3 -16 12 -26 10 -10 18 -20 18 -23 0 -3 3 -5 8 -4 4 2 7 -6 7 -17 0
-11 5 -20 10 -20 6 0 10 -6 10 -14 0 -8 7 -17 16 -20 8 -3 12 -10 9 -16 -3 -6
0 -13 9 -16 9 -3 12 -12 9 -21 -4 -11 -2 -14 5 -9 11 6 38 -31 34 -46 -1 -5 1
-7 6 -5 4 1 8 -2 9 -6 1 -5 10 -15 20 -23 10 -7 14 -14 10 -14 -4 0 -2 -6 5
-14 7 -8 16 -12 21 -9 4 2 7 -2 7 -9 0 -7 17 -32 38 -54 57 -64 87 -104 85
-115 -2 -5 0 -8 5 -7 12 4 52 -26 52 -39 0 -6 12 -21 26 -32 15 -12 23 -21 19
-21 -5 0 7 -14 26 -31 19 -17 33 -35 31 -41 -1 -5 2 -7 7 -4 11 7 33 -18 24
-27 -3 -4 4 -7 16 -7 12 0 20 -4 17 -8 -3 -5 6 -15 19 -22 13 -7 22 -16 20
-20 -3 -5 2 -11 11 -14 8 -3 12 -11 8 -17 -4 -7 -3 -9 2 -6 6 3 29 -12 54 -34
24 -21 48 -39 54 -39 6 0 4 -5 -4 -10 -13 -8 -12 -10 3 -10 10 0 15 -4 12 -10
-3 -6 1 -7 9 -4 11 4 16 0 16 -11 0 -9 4 -14 9 -11 4 3 17 -2 27 -10 10 -9 12
-13 4 -9 -8 4 -6 0 5 -9 11 -8 27 -21 35 -28 8 -7 17 -13 20 -13 2 0 17 -13
32 -29 16 -16 28 -26 28 -22 0 4 11 -4 24 -18 13 -15 27 -26 32 -26 5 0 16 -9
24 -20 8 -11 23 -20 33 -20 10 0 15 -5 12 -10 -3 -6 6 -15 20 -20 17 -6 24
-14 19 -22 -4 -7 -4 -10 1 -6 4 4 14 0 22 -10 8 -9 12 -11 8 -4 -3 6 -1 12 4
12 6 0 11 -7 11 -15 0 -8 7 -15 15 -15 9 0 18 -7 21 -15 4 -8 12 -15 20 -15 8
0 14 -4 14 -10 0 -5 7 -10 15 -10 8 0 15 -4 15 -10 0 -5 6 -10 14 -10 8 0 16
-7 20 -15 3 -8 9 -15 13 -14 17 3 33 -1 32 -8 -3 -20 2 -26 11 -13 8 13 10 12
10 -3 0 -10 5 -15 10 -12 6 3 10 2 10 -3 0 -5 14 -15 30 -22 17 -7 30 -16 30
-21 0 -5 7 -9 15 -9 8 0 15 -5 15 -11 0 -5 5 -7 10 -4 6 3 13 -1 16 -9 3 -9
10 -13 15 -10 5 3 9 0 9 -6 0 -6 5 -8 10 -5 6 3 10 1 10 -5 0 -6 5 -8 10 -5 6
3 10 0 10 -8 0 -8 8 -14 18 -13 10 0 16 -5 14 -14 -2 -8 0 -12 4 -7 4 4 18 0
32 -9 18 -12 23 -12 17 -3 -3 8 4 2 17 -12 13 -14 29 -24 36 -21 7 2 12 -1 12
-7 0 -6 7 -11 16 -11 8 0 13 -4 10 -9 -3 -5 0 -9 7 -8 32 1 48 -4 42 -13 -5
-9 15 -15 38 -11 4 0 7 -4 7 -9 0 -6 7 -10 15 -10 8 0 15 -5 15 -11 0 -5 4 -7
10 -4 5 3 10 1 10 -5 0 -7 7 -10 15 -6 8 3 15 2 15 -2 0 -8 60 -36 73 -33 4 0
7 -4 7 -9 0 -6 9 -10 21 -10 12 0 17 -4 13 -11 -4 -7 0 -9 13 -5 12 4 25 1 33
-9 7 -8 19 -15 27 -15 8 0 11 -5 7 -11 -4 -7 1 -7 16 1 15 8 20 8 16 1 -4 -6
0 -11 8 -11 9 0 16 -5 16 -11 0 -5 4 -8 8 -5 5 3 20 -1 35 -9 14 -7 28 -11 31
-7 3 3 6 0 6 -7 0 -7 4 -9 10 -6 5 3 10 1 10 -5 0 -7 6 -10 14 -7 7 3 23 -1
35 -9 11 -8 21 -13 21 -10 0 3 16 -3 36 -14 21 -12 33 -15 29 -8 -4 7 0 6 7
-4 11 -12 18 -14 32 -6 14 8 17 7 12 -1 -4 -7 0 -11 13 -11 10 0 21 -5 23 -10
2 -6 18 -11 36 -13 17 -1 32 -6 32 -11 0 -4 6 -6 14 -3 8 3 17 -2 21 -11 5
-14 7 -14 15 -2 7 10 10 11 10 3 0 -7 6 -12 13 -10 6 1 11 -4 9 -12 -2 -11 0
-12 11 -3 8 7 17 9 21 5 7 -7 31 -14 56 -15 8 0 28 -10 44 -21 16 -12 26 -15
21 -7 -6 10 -4 12 11 6 10 -5 25 -9 32 -9 6 0 12 -7 12 -16 0 -11 3 -12 8 -4
5 8 13 9 22 3 9 -6 20 -4 29 3 10 8 13 8 8 1 -4 -7 3 -14 17 -18 13 -3 32 -9
43 -12 15 -5 15 -4 3 5 -8 6 -10 11 -4 11 6 0 17 -7 24 -15 7 -8 15 -13 19
-11 4 3 13 1 21 -4 9 -5 19 -5 27 2 9 7 14 6 19 -5 3 -9 12 -13 20 -10 8 3 14
0 14 -6 0 -9 5 -9 20 -1 11 6 20 7 20 1 0 -5 7 -12 16 -15 10 -4 13 -2 8 7 -5
8 -2 7 9 -2 9 -7 17 -10 17 -6 0 4 8 1 17 -6 15 -12 16 -12 8 1 -7 13 -6 13 7
2 9 -7 29 -12 44 -10 16 1 39 -4 52 -11 17 -9 22 -9 22 1 0 9 3 9 10 -2 5 -8
10 -11 10 -6 0 4 11 1 24 -8 16 -10 27 -12 31 -6 4 7 13 7 25 0 13 -7 21 -7
25 0 4 7 14 5 28 -5 26 -18 41 -19 31 -2 -5 8 -2 8 9 -2 9 -7 17 -11 17 -7 0
3 11 1 25 -4 15 -6 27 -6 30 0 3 5 12 7 20 4 8 -4 12 -10 9 -15 -3 -5 0 -9 5
-9 6 0 11 8 11 18 1 16 1 16 11 -1 9 -15 13 -16 27 -5 9 7 13 8 9 2 -4 -7 2
-14 13 -17 11 -3 20 0 20 5 0 7 5 7 13 -1 10 -8 17 -7 25 1 9 9 12 9 12 0 0
-7 3 -11 8 -11 4 1 9 1 12 0 3 -1 35 -3 71 -5 37 -2 71 -6 77 -10 6 -3 14 -1
17 4 5 8 13 5 26 -6 15 -14 22 -15 32 -5 9 10 8 11 -8 6 -16 -6 -17 -5 -5 4
11 7 20 5 34 -7 11 -9 16 -11 12 -5 -8 14 6 18 18 6 12 -12 60 -11 75 1 11 8
13 8 8 0 -9 -16 705 -16 715 0 6 8 8 7 8 -1 0 -7 8 -13 18 -13 15 0 15 2 2 11
-12 9 -11 10 5 4 11 -4 28 -8 38 -10 16 -4 17 -2 5 12 -11 14 -9 14 21 -1 20
-11 30 -13 25 -5 -5 9 -2 11 9 6 10 -4 17 -1 17 6 0 7 3 8 8 2 10 -14 46 -19
37 -6 -4 8 2 8 19 1 15 -5 28 -6 31 0 3 5 13 6 22 3 12 -5 14 -3 8 8 -5 8 2 5
14 -5 19 -17 21 -17 15 -3 -5 15 -3 16 20 7 17 -6 25 -6 21 0 -4 6 6 8 24 6
17 -2 33 -1 35 2 11 10 76 9 77 -2 0 -6 5 0 10 13 7 18 12 21 22 12 13 -10 36
-9 70 4 10 5 17 3 17 -5 0 -9 4 -9 13 -3 6 6 19 11 27 11 22 1 58 10 72 18 7
5 8 3 3 -5 -6 -10 -3 -11 12 -2 14 7 24 7 33 -2 10 -9 11 -9 6 1 -4 7 -2 12 6
13 7 1 27 2 43 3 17 1 35 5 42 9 6 4 18 4 27 1 10 -4 16 -1 16 7 0 7 3 9 6 6
4 -3 15 -2 25 4 14 7 19 6 19 -3 0 -10 2 -10 9 1 5 7 14 10 20 7 6 -4 11 -3
11 2 0 5 11 8 25 7 14 -2 25 0 25 5 0 4 12 7 28 6 17 0 26 4 24 13 -1 8 2 10
10 5 20 -13 41 -11 61 5 9 8 20 11 24 8 3 -4 12 -2 19 4 8 6 14 7 18 0 9 -14
36 -2 36 16 0 13 3 13 15 3 9 -8 15 -9 15 -2 0 6 9 9 20 7 11 -2 20 0 20 5 0
5 9 7 20 5 11 -2 20 1 20 7 0 6 11 8 26 5 16 -3 28 0 31 9 3 8 9 12 13 9 5 -3
21 0 37 7 15 6 35 12 43 12 8 0 17 3 20 7 3 4 16 9 30 10 14 2 28 8 31 12 3 4
16 9 27 10 12 1 22 5 22 9 0 4 7 5 15 2 8 -4 15 -1 15 5 0 7 10 10 25 7 15 -3
24 0 22 7 -1 7 8 11 21 11 12 -1 22 3 22 8 0 5 4 7 9 3 5 -3 13 0 16 6 4 5 13
8 21 5 9 -3 14 1 14 12 0 15 2 15 10 2 8 -12 10 -12 10 -1 0 8 7 11 20 8 11
-3 18 -1 15 3 -5 8 63 36 78 32 4 -1 7 3 7 9 0 6 7 9 15 5 8 -3 15 -1 15 5 0
6 7 8 16 5 8 -3 12 -2 9 4 -6 9 8 14 28 11 4 0 7 4 7 10 0 5 5 7 10 4 6 -3 10
-1 10 5 0 6 5 8 10 5 6 -3 10 -1 10 5 0 6 4 9 9 5 5 -3 12 -1 16 5 4 6 10 8
15 5 4 -3 11 2 14 11 3 9 12 14 18 12 7 -3 19 1 26 9 8 7 18 11 23 8 5 -4 9
-1 9 4 0 6 3 10 8 10 21 -4 32 2 26 13 -5 8 -2 9 9 5 10 -3 17 -2 17 3 0 6 6
10 14 10 8 0 22 8 32 17 10 10 19 17 21 16 8 -4 43 10 43 18 0 5 6 9 14 9 8 0
29 12 48 27 22 19 28 21 18 8 -13 -19 -13 -18 10 1 26 22 59 38 72 36 5 -1 7
3 5 10 -1 7 4 12 11 13 7 0 16 5 20 12 4 6 19 15 35 18 15 4 25 11 22 15 -3 4
5 10 16 13 12 3 18 10 14 16 -3 6 0 9 8 5 8 -3 21 2 30 10 8 8 17 12 21 9 3
-4 6 -1 6 5 0 6 12 17 28 25 15 7 26 19 24 26 -1 7 1 10 6 7 14 -8 61 17 68
36 3 10 8 17 12 15 13 -4 52 30 44 38 -4 5 -2 5 5 1 6 -3 14 -2 18 4 4 6 12 7
18 4 7 -4 9 -4 5 1 -8 9 31 42 45 37 4 -1 7 5 7 13 0 8 6 15 14 15 8 0 16 7
20 15 3 8 11 14 18 13 7 -2 12 3 11 9 -2 7 6 13 17 13 13 0 18 5 14 15 -4 10
0 15 10 15 9 0 31 16 49 35 17 19 35 35 40 35 4 0 25 18 47 40 22 22 44 40 50
40 6 0 9 3 7 8 -4 7 26 40 41 45 4 1 6 5 5 10 -2 4 1 7 6 7 13 0 111 98 111
111 0 5 5 7 10 4 6 -3 13 2 17 12 8 21 33 48 33 36 0 -4 10 7 21 24 12 18 25
30 30 27 5 -3 9 4 9 16 0 12 4 19 9 16 5 -3 17 7 26 22 10 15 32 40 49 56 17
15 24 25 16 20 -8 -4 6 14 33 40 26 26 47 51 47 55 0 5 7 14 15 21 8 7 12 16
9 21 -3 5 2 9 10 9 9 0 16 4 16 10 0 9 19 36 48 66 7 8 10 14 6 14 -4 0 1 7
12 15 10 8 16 15 12 15 -7 0 17 32 50 66 7 8 11 18 8 23 -3 5 1 11 9 15 8 3
15 12 15 21 0 8 4 15 8 15 5 0 17 16 28 35 10 19 22 35 25 35 4 0 13 16 19 35
6 19 16 35 21 35 5 0 9 6 9 14 0 7 7 19 15 26 8 7 12 16 9 21 -3 5 0 9 6 9 6
0 8 5 5 10 -3 6 -2 10 2 10 5 0 14 9 21 21 11 17 11 20 0 14 -7 -3 -2 3 11 14
13 12 20 21 16 21 -4 0 0 11 9 25 9 14 14 25 11 25 -4 0 1 7 9 16 9 8 14 20
11 25 -4 5 -1 9 4 9 6 0 11 7 11 15 0 8 4 15 10 15 5 0 9 3 8 8 -1 4 4 21 11
37 7 17 12 32 11 33 -1 2 7 10 17 19 10 8 12 12 6 8 -9 -4 -11 -1 -7 9 3 9 11
13 18 9 6 -3 8 -3 4 2 -4 4 -2 15 5 23 9 13 9 14 0 8 -9 -5 -11 -2 -7 8 3 9
10 13 16 10 5 -3 8 0 7 7 -2 8 8 37 21 64 13 28 24 58 24 67 1 9 7 23 14 30 6
6 12 20 12 29 0 10 5 21 11 24 6 4 8 13 5 20 -2 7 2 16 10 19 9 3 12 11 9 16
-4 6 1 22 10 37 12 17 13 23 4 17 -11 -6 -12 -5 -2 8 7 8 10 18 6 21 -3 4 -2
7 4 7 5 0 10 6 11 13 3 36 8 53 16 59 5 3 11 17 12 30 6 40 10 52 23 77 11 19
11 22 -1 15 -7 -4 -5 2 5 14 11 11 16 25 13 31 -4 5 -1 13 5 16 5 4 8 13 5 21
-3 7 -1 16 4 19 5 3 7 14 5 25 -2 11 0 20 4 20 5 0 11 9 14 20 3 11 2 20 -2
20 -4 0 -8 7 -8 15 0 8 3 13 5 10 13 -12 29 31 21 53 -8 20 -7 23 7 18 14 -5
15 -4 5 8 -8 9 -8 16 -2 20 5 4 8 15 6 26 -2 11 0 22 5 25 5 3 6 13 3 22 -4
11 -3 14 5 9 8 -5 10 -2 6 8 -4 10 -1 16 7 16 11 0 11 2 2 8 -9 6 -10 17 -4
39 5 17 7 34 3 37 -3 3 0 6 6 6 6 0 9 15 8 35 -2 19 1 32 6 29 5 -3 6 6 2 20
-4 18 -2 26 7 26 11 0 11 3 -1 10 -11 7 -11 10 -2 10 7 0 10 5 6 11 -3 6 0 15
7 20 11 7 11 9 1 9 -7 0 -10 5 -6 11 7 11 9 29 19 124 3 28 7 59 9 70 2 11 -1
26 -6 32 -7 9 -5 15 6 19 12 4 13 11 6 24 -7 14 -6 23 6 34 8 9 11 16 6 16 -5
0 -9 7 -9 15 0 8 4 15 9 15 5 0 4 8 -1 18 -7 14 -6 25 6 42 9 13 11 20 5 16
-16 -10 -15 7 1 23 10 10 8 11 -8 6 -20 -7 -20 -6 -1 9 15 12 16 16 5 16 -12
0 -12 2 0 9 11 7 11 9 0 14 -8 3 -9 6 -3 6 6 1 9 12 6 26 -2 14 2 33 9 42 8
10 9 14 2 10 -12 -8 -13 29 0 50 3 5 4 13 0 17 -11 10 -9 56 2 56 5 0 3 5 -5
10 -12 8 -12 10 -1 10 10 0 11 3 2 13 -6 8 -8 17 -4 20 8 9 11 97 3 97 -4 0
-7 7 -7 15 0 8 4 12 9 9 4 -3 8 -1 8 5 0 5 -5 13 -10 16 -6 4 -7 13 -2 23 5 9
7 45 6 80 -2 44 1 60 9 56 7 -3 3 2 -7 10 -11 9 -16 16 -10 16 5 0 8 29 6 68
-1 37 -2 74 -2 82 0 8 1 45 1 82 1 47 5 66 13 62 6 -3 2 2 -8 10 -11 9 -16 16
-10 16 5 0 8 29 6 68 -1 37 -2 74 -2 82 0 8 1 45 1 82 1 47 5 66 13 62 6 -3 2
2 -8 10 -11 9 -16 16 -10 16 5 0 8 29 6 68 -1 37 -2 74 -2 82 0 8 1 45 1 82 1
47 5 66 13 62 6 -3 2 2 -8 10 -11 9 -16 16 -10 16 5 0 8 29 6 68 -1 37 -2 74
-2 82 0 8 1 45 1 82 1 47 5 66 13 62 6 -3 2 2 -8 10 -11 9 -16 16 -10 16 5 0
8 29 6 68 -1 37 -2 74 -2 82 0 8 1 45 1 82 1 47 5 66 13 62 6 -3 2 2 -8 10
-11 9 -16 16 -10 16 5 0 8 29 6 68 -1 37 -2 74 -2 82 0 8 1 45 1 82 1 47 5 66
13 62 6 -3 2 2 -8 10 -11 9 -16 16 -10 16 5 0 8 29 6 68 -1 37 -2 74 -2 82 0
8 1 45 1 82 1 47 5 66 13 62 6 -3 2 2 -8 10 -11 9 -16 16 -10 16 5 0 8 29 6
68 -1 37 -2 74 -2 82 0 8 1 45 1 82 1 47 5 66 13 62 6 -3 2 2 -8 10 -11 9 -16
16 -10 16 5 0 8 29 6 68 -1 37 -2 74 -2 82 0 8 1 45 1 82 1 47 5 66 13 62 6
-3 2 2 -8 10 -11 9 -16 16 -10 16 5 0 8 29 6 68 -1 37 -2 74 -2 82 0 8 1 45 1
82 1 47 5 66 13 62 6 -3 2 2 -8 10 -11 9 -16 16 -10 16 5 0 8 29 6 68 -1 37
-2 74 -2 82 0 8 1 45 1 82 1 47 5 66 13 62 6 -3 2 2 -8 10 -11 9 -16 16 -10
16 5 0 8 29 6 68 -1 37 -2 74 -2 82 0 8 1 45 1 82 1 47 5 66 13 62 6 -3 2 2
-8 10 -11 9 -16 16 -10 16 12 0 12 163 -1 172 -7 5 -6 8 0 8 6 0 11 9 11 20 0
11 -4 20 -9 20 -4 0 -5 4 -2 10 13 21 14 54 2 62 -9 6 -9 8 2 8 10 0 11 3 2
14 -7 8 -8 17 -3 20 8 5 8 58 -1 119 -3 20 0 27 12 27 14 0 14 2 1 10 -8 5
-10 10 -5 10 6 0 3 5 -5 10 -8 5 -10 10 -5 10 9 0 10 59 4 185 0 6 2 21 5 35
3 14 0 27 -7 32 -9 6 -9 8 2 8 10 0 11 3 2 14 -7 8 -8 17 -3 20 8 5 8 58 -1
119 -3 20 0 27 12 27 14 0 14 2 1 10 -8 5 -10 10 -5 10 6 0 3 5 -5 10 -8 5
-10 10 -5 10 9 0 10 59 4 185 0 6 2 21 5 35 3 14 0 27 -7 32 -9 6 -9 8 2 8 10
0 11 3 2 14 -7 8 -8 17 -3 20 8 5 8 58 -1 119 -3 20 0 27 12 27 14 0 14 2 1
10 -8 5 -10 10 -5 10 6 0 3 5 -5 10 -8 5 -10 10 -5 10 7 0 10 33 9 90 -2 66 1
89 9 84 7 -3 3 2 -7 10 -11 9 -16 16 -10 16 10 0 10 123 0 139 -4 5 -2 13 4
16 8 5 8 11 0 20 -6 8 -7 16 -2 19 10 6 7 60 -3 77 -4 5 0 9 7 9 9 0 9 3 -2
10 -13 9 -13 10 0 10 12 0 12 2 2 9 -16 9 -15 20 1 40 9 11 9 13 1 8 -8 -5
-12 6 -12 33 0 22 -4 44 -7 50 -3 5 2 10 12 11 15 0 15 2 3 7 -9 4 -15 20 -14
40 0 17 -4 32 -9 32 -6 0 -5 5 0 13 10 12 10 44 -1 54 -3 3 -1 15 5 26 8 15 8
18 -1 12 -8 -5 -11 -3 -8 6 3 8 1 22 -4 32 -5 11 -5 17 2 17 5 0 10 5 10 11 0
5 -4 8 -8 5 -4 -2 -7 7 -7 22 1 15 -3 35 -8 46 -6 11 -5 16 1 13 5 -4 7 4 4
18 -2 15 -9 22 -16 18 -7 -4 -7 -1 1 8 10 12 10 18 0 29 -10 10 -9 11 3 4 11
-6 10 -1 -4 20 -10 16 -14 26 -8 22 6 -3 9 5 8 19 0 14 -5 25 -10 25 -5 0 -6
3 -3 7 4 3 2 12 -4 20 -9 10 -7 13 7 13 15 0 16 2 5 9 -14 9 -17 21 -24 81 -1
14 -6 31 -10 38 -5 7 -3 12 5 12 8 0 7 4 -4 11 -13 7 -15 15 -9 32 6 15 4 29
-4 41 -8 10 -12 26 -10 37 2 10 0 19 -4 19 -4 0 -8 17 -9 37 -1 21 -6 39 -12
41 -7 3 -7 8 1 18 9 11 9 14 -1 14 -7 0 -10 7 -6 15 3 8 1 15 -5 15 -5 0 -9 6
-8 13 3 16 -10 67 -22 90 -6 11 -6 17 2 17 6 0 3 7 -6 16 -9 10 -14 26 -12 36
3 12 -1 22 -10 25 -12 5 -12 7 -1 14 9 6 10 9 1 9 -7 0 -10 7 -6 17 4 9 2 14
-3 10 -5 -3 -10 2 -11 11 -3 43 -8 62 -15 62 -4 0 -8 8 -8 18 0 10 -6 24 -12
31 -11 11 -10 12 2 6 9 -5 7 1 -5 15 -11 13 -14 20 -8 16 9 -5 11 -2 7 8 -3 9
-10 14 -14 11 -5 -3 -6 4 -3 15 3 11 1 20 -5 20 -6 0 -9 9 -7 20 2 11 -1 20
-6 20 -6 0 -7 5 -4 10 3 6 1 10 -5 10 -6 0 -9 4 -5 9 3 5 -1 16 -9 24 -8 8
-12 17 -9 21 3 3 0 12 -7 21 -7 8 -9 15 -5 15 4 0 -3 16 -14 36 -12 19 -19 40
-16 45 4 5 1 9 -4 9 -6 0 -11 9 -11 20 0 11 -5 20 -11 20 -5 0 -7 5 -4 10 3 6
2 10 -4 10 -5 0 -8 9 -6 20 2 11 0 20 -6 20 -5 0 -9 7 -9 15 0 8 -5 15 -11 15
-6 0 -9 6 -6 13 2 6 -3 18 -12 25 -9 8 -10 11 -4 7 9 -4 11 -1 7 9 -3 9 -10
16 -16 16 -5 0 -6 5 -3 10 3 6 1 10 -5 10 -6 0 -8 5 -5 10 3 6 1 10 -5 10 -6
0 -9 4 -6 9 4 5 2 11 -4 13 -6 2 -12 14 -15 28 -3 14 -9 26 -15 28 -6 2 -8 8
-4 13 3 5 1 9 -4 9 -8 0 -25 42 -19 47 1 1 -7 9 -18 18 -11 9 -13 14 -5 10 8
-4 6 2 -5 12 -11 10 -20 25 -20 33 0 8 -8 21 -17 28 -10 7 -16 18 -13 23 4 5
1 9 -4 9 -6 0 -11 6 -11 14 0 8 -4 16 -8 18 -4 2 -18 25 -30 51 -14 30 -27 45
-34 41 -7 -4 -8 -3 -4 4 4 7 2 12 -4 12 -7 0 -10 6 -7 13 2 6 -5 20 -15 29
-11 9 -20 20 -20 25 -2 18 -21 52 -28 48 -4 -3 -13 9 -20 25 -7 16 -25 43 -41
60 -16 16 -24 30 -19 30 6 0 5 6 -2 14 -7 8 -17 11 -22 8 -5 -3 -6 0 -3 5 4 6
-6 25 -22 42 -16 17 -27 31 -25 31 3 0 -9 15 -26 33 -16 17 -33 40 -36 50 -3
9 -12 17 -20 17 -8 0 -13 4 -10 9 3 5 -7 22 -22 38 -47 52 -61 71 -54 78 4 4
2 6 -3 5 -21 -5 -36 0 -30 9 3 5 -4 16 -15 24 -11 7 -17 17 -13 20 3 4 1 7 -6
7 -7 0 -9 5 -6 10 4 6 1 9 -7 8 -7 -2 -12 3 -11 10 2 6 -4 12 -12 12 -8 0 -23
13 -34 30 -10 16 -21 27 -24 23 -4 -3 -7 0 -7 8 0 8 -18 29 -40 48 -22 19 -36
39 -33 44 3 6 2 7 -4 4 -11 -7 -43 27 -43 45 0 6 -3 9 -6 5 -8 -8 -44 25 -38
35 3 5 1 7 -3 6 -5 -2 -33 20 -61 47 -109 105 -140 133 -166 150 -14 9 -23 21
-20 26 5 8 -9 13 -28 10 -4 0 -10 8 -13 19 -4 12 -15 20 -27 20 -12 0 -19 3
-15 6 8 8 -12 28 -36 37 -10 4 -15 11 -12 17 5 9 -1 12 -21 9 -3 0 -15 11 -28
25 -12 14 -25 26 -29 26 -4 0 -19 10 -32 23 -34 32 -49 43 -60 46 -5 2 -9 7
-7 13 1 5 -1 7 -6 4 -5 -3 -18 2 -28 10 -10 9 -12 12 -4 8 9 -4 12 -3 7 2 -5
5 -12 9 -15 9 -11 1 -52 25 -72 43 -37 34 -48 41 -54 35 -3 -4 -6 0 -6 7 0 7
-3 10 -6 7 -4 -4 -14 2 -24 13 -9 10 -23 20 -30 22 -8 2 -25 13 -38 26 -13 12
-28 20 -33 17 -5 -4 -9 -1 -9 5 0 6 -4 8 -10 5 -5 -3 -10 1 -10 9 0 14 -19 21
-36 14 -3 -2 -10 5 -15 15 -6 10 -28 25 -50 33 -22 9 -36 21 -32 27 3 5 1 7
-5 3 -6 -3 -14 -1 -17 5 -4 5 -14 8 -23 4 -9 -3 -13 -3 -9 1 6 6 -28 38 -43
39 -20 3 -50 18 -50 26 0 6 -4 7 -10 4 -5 -3 -10 -1 -10 5 0 7 -7 10 -15 6 -8
-3 -15 -1 -15 4 0 6 -7 10 -15 10 -8 0 -15 5 -15 11 0 5 -4 8 -9 4 -5 -3 -16
1 -24 9 -8 8 -17 12 -21 9 -3 -4 -6 -1 -6 6 0 7 -4 9 -10 6 -5 -3 -10 -1 -10
5 0 6 -4 8 -10 5 -5 -3 -10 -1 -10 6 0 7 -8 9 -21 6 -12 -3 -18 -3 -15 0 7 7
-40 33 -60 33 -7 0 -18 8 -23 18 -8 13 -11 14 -11 2 0 -12 -3 -11 -11 3 -6 9
-14 15 -19 12 -5 -3 -11 -1 -15 5 -4 6 -11 8 -16 5 -5 -4 -9 -1 -9 4 0 6 -7
11 -15 11 -8 0 -23 4 -33 10 -21 12 -72 32 -92 36 -8 2 -16 7 -18 13 -2 5 -10
7 -18 4 -8 -3 -14 0 -14 7 0 6 -4 9 -9 6 -15 -9 -42 5 -34 18 4 6 -1 5 -10 -3
-15 -12 -21 -9 -19 10 1 4 -8 5 -18 2 -12 -3 -20 0 -20 6 0 7 -4 10 -8 7 -5
-3 -21 1 -36 9 -14 8 -24 10 -21 6 2 -5 -12 0 -33 10 -20 11 -43 17 -50 14 -7
-3 -10 0 -7 5 3 6 1 10 -4 10 -6 0 -11 -5 -11 -12 0 -6 -6 -4 -13 7 -8 10 -19
15 -25 11 -7 -4 -12 -2 -12 3 0 6 -3 10 -7 10 -5 -1 -10 0 -13 1 -5 2 -46 9
-67 12 -7 1 -13 6 -13 11 0 5 -7 7 -15 4 -8 -4 -17 -2 -21 4 -3 5 -14 7 -25 4
-11 -4 -19 -2 -19 5 0 8 -10 10 -25 8 -13 -3 -22 -2 -20 2 3 5 -2 11 -11 14
-10 4 -13 2 -9 -7 4 -6 0 -4 -8 6 -11 13 -16 15 -19 5 -4 -10 -10 -10 -34 1
-16 8 -42 16 -59 18 -16 2 -31 8 -33 13 -2 6 -11 6 -23 0 -14 -8 -19 -7 -19 1
0 7 -3 9 -7 6 -3 -4 -14 0 -24 9 -13 12 -22 13 -38 5 -16 -9 -22 -8 -30 6 -6
11 -11 13 -11 5 0 -8 -5 -10 -12 -6 -7 4 -24 8 -38 9 -14 1 -31 5 -38 9 -8 4
-16 5 -19 2 -3 -3 -13 0 -21 7 -11 8 -13 8 -9 0 5 -7 0 -9 -13 -6 -11 3 -20 9
-20 14 0 5 -12 4 -26 -1 -14 -6 -23 -6 -20 -1 3 5 -5 11 -19 13 -22 5 -24 3
-13 -11 11 -12 7 -12 -15 2 -16 10 -35 16 -42 13 -8 -3 -17 -1 -21 5 -4 6 -11
6 -20 -2 -9 -8 -14 -8 -14 -1 0 7 -15 10 -35 8 -19 -1 -35 0 -35 4 0 3 -10 6
-22 7 -13 1 -43 2 -68 4 -25 2 -50 0 -56 -4 -7 -4 -17 -1 -23 6 -6 8 -26 12
-46 11 -26 -2 -34 0 -28 9 4 7 0 7 -10 -2 -14 -11 -17 -11 -17 0 0 12 -2 12
-9 0 -6 -9 -10 -10 -16 -2 -5 9 -10 9 -21 0 -11 -9 -14 -9 -14 0 0 9 -5 9 -20
1 -14 -8 -20 -8 -20 0 0 6 -4 9 -9 6 -5 -4 -12 0 -14 6 -3 7 -6 4 -6 -7 -1
-15 -3 -17 -10 -6 -5 8 -31 14 -69 16 -34 1 -60 -1 -58 -4 2 -3 -6 -6 -19 -6
-13 0 -21 3 -19 6 2 4 -14 6 -36 6 -24 0 -37 -4 -33 -10 4 -6 1 -7 -8 -1 -22
13 -73 14 -81 1 -5 -8 -8 -8 -8 -1 0 14 -103 14 -112 0 -5 -8 -8 -7 -8 1 0 12
-17 12 -37 0 -6 -4 -14 -3 -18 3 -3 5 -11 10 -16 10 -6 0 -7 -6 -3 -12 5 -8 0
-7 -11 2 -17 14 -18 13 -11 -4 6 -19 6 -19 -12 -3 -22 20 -36 22 -26 5 5 -9 2
-9 -9 1 -15 12 -17 11 -17 -5 0 -16 -1 -16 -12 -1 -10 12 -17 14 -30 6z m602
-5 c0 -8 -19 -13 -24 -6 -3 5 1 9 9 9 8 0 15 -2 15 -3z m-340 -2355 c0 9 43 7
59 -4 6 -3 11 0 11 7 0 9 3 9 10 -2 9 -13 10 -13 10 0 1 12 3 12 14 -3 13 -16
14 -16 20 -1 6 16 8 15 22 -2 9 -10 12 -13 8 -5 -5 11 -1 12 20 7 18 -4 25 -3
21 3 -8 14 28 1 37 -13 6 -8 8 -8 8 0 0 6 7 11 15 11 8 0 15 -5 15 -10 0 -5 6
-4 13 2 8 6 17 8 21 4 12 -12 36 -12 36 0 0 8 4 7 9 -2 6 -8 20 -12 39 -9 17
2 29 1 26 -4 -3 -5 5 -7 18 -4 13 2 40 -2 60 -9 22 -7 42 -8 51 -3 10 5 20 4
29 -5 7 -8 20 -12 29 -10 9 3 32 -2 51 -10 26 -11 39 -12 47 -4 8 8 11 8 11
-1 0 -7 8 -12 18 -12 10 0 24 -6 31 -12 11 -10 13 -10 7 0 -4 6 -2 12 3 12 6
0 11 -3 11 -8 0 -8 79 -31 123 -36 16 -1 32 -8 37 -15 4 -8 14 -11 21 -9 8 3
20 -1 27 -9 8 -7 18 -11 23 -8 5 4 9 2 9 -3 0 -5 9 -12 20 -15 11 -3 18 -1 15
4 -7 11 54 -21 73 -38 17 -16 25 -17 16 -2 -3 6 5 4 18 -5 14 -9 27 -14 30
-10 3 3 9 0 14 -7 5 -8 3 -10 -7 -4 -8 5 -11 4 -6 0 4 -5 18 -10 30 -12 12 -2
23 -8 25 -13 2 -5 10 -6 18 -3 8 3 14 -1 14 -10 0 -11 6 -13 22 -9 14 3 19 1
14 -6 -3 -6 -2 -13 4 -17 5 -3 10 0 10 7 0 9 2 10 8 2 4 -7 27 -22 50 -34 24
-13 46 -29 49 -36 3 -8 10 -11 15 -8 6 4 20 -4 30 -17 11 -13 16 -17 12 -9 -5
8 10 0 33 -17 22 -18 44 -33 48 -33 11 0 34 -27 28 -34 -4 -3 3 -6 15 -6 12 0
22 -4 22 -9 0 -5 9 -11 20 -14 11 -3 20 -13 20 -22 0 -9 5 -13 10 -10 6 3 10
1 10 -5 0 -6 4 -9 9 -6 5 3 12 -1 15 -10 3 -8 10 -12 16 -9 5 3 10 0 10 -7 0
-15 35 -48 51 -48 5 0 8 -4 4 -9 -3 -5 4 -12 15 -16 11 -3 20 -13 20 -21 0 -8
5 -12 10 -9 6 3 10 1 10 -5 0 -6 5 -8 12 -4 6 4 8 3 5 -3 -4 -6 5 -19 18 -29
14 -10 25 -25 25 -32 0 -7 5 -10 10 -7 6 3 10 1 10 -5 0 -6 5 -8 12 -4 7 5 8
3 3 -5 -4 -8 6 -24 27 -44 19 -18 40 -42 47 -55 7 -12 16 -20 22 -17 5 4 9 3
8 -2 -3 -20 2 -34 11 -28 6 3 10 -1 10 -10 0 -9 4 -13 10 -10 6 3 7 -1 4 -9
-4 -11 0 -16 11 -16 9 0 14 -4 11 -9 -3 -5 6 -21 19 -35 14 -15 25 -31 25 -37
0 -5 5 -9 10 -9 6 0 10 -6 10 -14 0 -7 10 -24 23 -38 13 -14 21 -31 19 -38 -3
-7 0 -10 6 -6 5 3 13 -1 16 -10 4 -10 2 -13 -7 -9 -6 4 -4 0 5 -8 10 -8 15
-17 11 -20 -3 -4 0 -7 7 -7 7 0 11 -3 7 -6 -3 -4 4 -15 16 -26 12 -11 16 -16
9 -13 -11 6 -11 3 0 -14 7 -12 16 -21 21 -21 4 0 5 -4 2 -10 -3 -5 -1 -10 5
-10 6 0 9 -4 5 -9 -3 -5 2 -17 11 -26 9 -9 14 -18 11 -22 -3 -3 3 -14 14 -26
10 -11 19 -28 19 -38 0 -9 10 -29 22 -45 13 -15 16 -24 8 -19 -12 7 -13 6 -3
-7 7 -8 10 -18 6 -21 -3 -4 -1 -7 6 -7 7 0 9 -4 6 -10 -3 -5 -1 -10 5 -10 6 0
8 -4 5 -10 -3 -5 -2 -10 4 -10 5 0 8 -11 7 -25 -2 -13 1 -22 5 -19 8 5 10 0 9
-21 0 -3 6 -18 14 -34 9 -16 12 -31 9 -35 -4 -3 -1 -6 5 -6 7 0 12 -12 12 -26
0 -17 4 -23 13 -18 9 5 9 4 1 -5 -9 -10 -8 -19 2 -39 8 -15 14 -34 14 -42 0
-9 6 -22 13 -29 10 -11 9 -12 -3 -6 -13 8 -13 6 -2 -7 7 -9 14 -31 16 -49 2
-19 7 -42 11 -51 4 -10 4 -25 1 -34 -3 -8 -2 -12 3 -9 5 3 12 1 16 -5 3 -5 0
-10 -7 -10 -10 0 -10 -2 1 -9 8 -5 11 -16 8 -25 -4 -9 -2 -16 4 -16 6 0 9 -6
6 -14 -3 -7 0 -19 6 -26 9 -10 9 -11 0 -6 -14 8 -18 -6 -5 -18 4 -4 8 -12 8
-17 1 -5 2 -10 3 -11 1 -2 4 -25 7 -51 3 -35 1 -46 -8 -41 -7 4 -8 3 -4 -5 4
-6 11 -9 16 -6 4 2 8 -10 9 -28 4 -126 7 -155 11 -152 4 2 5 -24 4 -58 0 -34
4 -65 9 -69 7 -4 7 -11 -2 -21 -8 -11 -9 -17 -1 -22 6 -3 7 -12 3 -18 -10 -17
-10 -40 1 -54 5 -9 4 -13 -4 -13 -8 0 -9 -4 -3 -12 8 -12 9 -26 3 -45 -6 -19
-5 -39 3 -55 4 -10 4 -18 -1 -18 -11 0 -9 -30 3 -49 5 -10 4 -12 -3 -7 -8 5
-11 -3 -8 -26 2 -18 -1 -36 -8 -40 -7 -5 -6 -8 4 -8 12 0 12 -2 1 -9 -10 -6
-11 -13 -2 -29 8 -15 8 -23 -1 -28 -7 -5 -8 -3 -3 6 5 9 4 11 -4 6 -8 -6 -9
-12 -2 -20 6 -7 8 -15 5 -19 -3 -3 -7 -34 -9 -69 -2 -34 -5 -65 -6 -68 -1 -3
-1 -8 0 -12 0 -5 -5 -8 -12 -8 -9 0 -8 -3 2 -9 9 -6 10 -11 3 -15 -6 -4 -8
-14 -5 -23 5 -11 3 -14 -6 -8 -10 6 -11 3 -2 -13 8 -15 7 -21 -2 -25 -8 -3
-12 -21 -10 -50 2 -31 -2 -47 -11 -50 -9 -4 -12 -14 -9 -25 2 -11 0 -23 -6
-26 -5 -4 -8 -13 -5 -21 3 -7 1 -23 -6 -34 -8 -16 -8 -21 2 -22 10 0 10 -2 0
-6 -6 -2 -10 -9 -6 -14 3 -5 1 -9 -5 -9 -5 0 -8 -8 -7 -17 2 -10 0 -20 -5 -23
-4 -3 -10 -19 -13 -35 -2 -17 -5 -32 -6 -35 -1 -3 -2 -9 0 -15 1 -5 -7 -15
-16 -22 -10 -7 -13 -13 -6 -13 6 0 9 -7 6 -15 -4 -8 -10 -12 -15 -9 -5 3 -6
-2 -3 -11 4 -8 1 -22 -6 -30 -7 -8 -9 -15 -5 -15 4 0 2 -7 -5 -15 -6 -8 -9
-19 -5 -25 3 -5 1 -10 -4 -10 -6 0 -11 -7 -11 -15 0 -8 -6 -15 -12 -15 -8 0
-9 -3 -3 -8 15 -11 17 -32 2 -29 -6 1 -11 -4 -10 -10 2 -7 -2 -13 -8 -13 -5 0
-7 -4 -4 -10 3 -5 1 -10 -5 -10 -6 0 -8 -5 -4 -11 3 -6 3 -14 -2 -18 -5 -3
-15 -17 -22 -30 -11 -19 -11 -22 0 -15 7 4 3 -5 -10 -20 -12 -16 -19 -32 -16
-37 3 -5 0 -9 -5 -9 -6 0 -11 -7 -11 -16 0 -9 -5 -12 -12 -8 -10 6 -10 5 -1
-7 10 -12 8 -19 -8 -33 -12 -9 -18 -24 -15 -32 3 -8 2 -13 -2 -11 -10 7 -32
-19 -24 -27 3 -4 1 -10 -5 -14 -6 -4 -13 -14 -15 -22 -3 -14 -13 -29 -35 -55
-7 -7 -13 -18 -13 -24 0 -6 -5 -11 -12 -11 -6 0 -8 -3 -5 -7 4 -3 0 -11 -9
-17 -8 -6 -16 -21 -17 -33 0 -12 -5 -20 -9 -17 -4 3 -14 -9 -22 -25 -9 -16
-21 -35 -28 -43 -7 -7 -21 -26 -31 -41 -10 -15 -22 -25 -27 -22 -6 3 -7 0 -4
-8 3 -8 -2 -17 -11 -21 -9 -3 -14 -10 -10 -15 3 -5 -4 -13 -16 -16 -12 -4 -18
-12 -15 -21 3 -8 -1 -14 -10 -14 -8 0 -13 -4 -9 -9 3 -5 -4 -12 -15 -16 -11
-3 -20 -11 -20 -17 0 -6 -18 -27 -39 -48 -22 -21 -36 -41 -33 -45 4 -4 2 -5
-4 -3 -5 2 -31 -19 -57 -45 -26 -26 -52 -45 -58 -42 -5 4 -9 3 -8 -2 3 -20 -2
-34 -11 -28 -5 3 -10 1 -10 -5 0 -6 -4 -8 -10 -5 -5 3 -10 0 -10 -7 0 -7 -14
-19 -30 -26 -17 -8 -28 -17 -26 -21 3 -4 -15 -19 -40 -35 -24 -15 -44 -32 -44
-37 0 -4 -8 -5 -17 -2 -12 5 -15 2 -10 -10 3 -9 3 -16 -1 -16 -21 3 -32 -2
-26 -12 4 -7 1 -10 -7 -7 -7 2 -22 -4 -33 -13 -10 -10 -23 -16 -28 -13 -4 3
-8 1 -8 -5 0 -5 -9 -13 -20 -16 -11 -4 -18 -10 -16 -14 3 -4 -5 -8 -16 -8 -12
-1 -25 -8 -29 -15 -5 -7 -13 -14 -19 -14 -5 -1 -15 -2 -21 -3 -5 0 -7 -6 -3
-13 4 -6 3 -8 -4 -4 -6 3 -13 2 -17 -4 -4 -6 -11 -8 -16 -5 -5 4 -9 1 -9 -4 0
-6 -8 -11 -19 -11 -10 0 -24 -7 -31 -15 -7 -8 -19 -15 -28 -15 -8 0 -21 -8
-29 -17 -10 -12 -12 -13 -8 -3 4 8 -1 6 -9 -4 -9 -11 -16 -15 -16 -8 0 6 -7 9
-15 6 -8 -4 -12 -11 -8 -17 4 -6 0 -8 -10 -4 -9 3 -19 2 -22 -4 -4 -5 -11 -7
-16 -4 -5 4 -9 1 -9 -5 0 -6 -4 -8 -10 -5 -5 3 -10 2 -10 -4 0 -6 -7 -7 -17
-4 -11 4 -14 3 -9 -5 5 -8 -2 -12 -21 -12 -16 0 -39 -7 -51 -16 -12 -8 -27
-12 -32 -9 -6 3 -10 2 -10 -4 0 -6 -6 -8 -14 -5 -8 3 -17 1 -20 -5 -4 -6 -13
-8 -21 -4 -8 3 -15 1 -15 -5 0 -5 -8 -9 -17 -9 -34 0 -44 -3 -39 -11 2 -4 -4
-9 -15 -9 -11 -1 -17 2 -14 7 3 5 -7 3 -22 -5 -18 -10 -31 -11 -39 -4 -9 7
-15 5 -22 -8 -6 -10 -14 -15 -18 -11 -4 5 -13 3 -21 -3 -10 -9 -13 -8 -13 2 0
10 -2 11 -8 2 -4 -6 -27 -14 -52 -17 -25 -2 -46 -5 -47 -6 -9 -7 -30 -5 -42 4
-11 8 -13 8 -8 0 4 -7 0 -14 -8 -18 -8 -3 -15 0 -16 7 0 9 -2 9 -6 -1 -2 -6
-9 -9 -15 -6 -6 4 -14 0 -19 -7 -7 -11 -9 -11 -9 -1 0 8 -6 10 -17 5 -23 -10
-54 -10 -72 1 -9 6 -12 5 -7 -2 4 -7 -18 -10 -74 -9 -44 1 -80 0 -80 -3 0 -3
-16 -5 -35 -6 -18 0 -31 4 -28 9 3 5 -2 5 -13 0 -22 -11 -34 -11 -51 0 -8 5
-13 3 -13 -4 0 -7 -8 -6 -25 5 -23 15 -24 15 -18 -1 6 -15 4 -16 -9 -6 -8 7
-18 10 -22 6 -4 -4 -11 -1 -16 7 -6 9 -10 10 -10 3 0 -6 -8 -10 -17 -8 -10 2
-18 4 -18 5 0 1 -10 3 -22 4 -13 2 -23 -2 -23 -8 0 -8 -2 -8 -8 0 -4 6 -14 11
-22 11 -18 1 -96 11 -147 19 -21 4 -44 7 -50 7 -7 0 -13 5 -13 11 0 6 -5 4
-10 -4 -5 -8 -10 -10 -10 -5 0 10 -26 16 -77 18 -13 1 -23 5 -23 9 0 4 -13 8
-30 8 -16 0 -30 4 -30 10 0 5 -7 7 -15 3 -9 -3 -25 3 -37 13 -12 11 -18 13
-14 7 9 -17 1 -16 -34 2 -17 9 -30 12 -30 8 0 -5 -5 -1 -10 7 -9 13 -10 13
-10 0 0 -11 -2 -12 -8 -2 -5 7 -19 14 -31 17 -13 2 -35 12 -48 21 -14 9 -22
11 -18 4 4 -7 -4 -4 -18 5 -15 9 -31 14 -37 10 -5 -3 -10 -1 -10 4 0 6 -7 11
-15 11 -8 0 -15 5 -15 12 0 6 -3 8 -7 5 -3 -4 -13 -1 -21 6 -13 10 -14 9 -8
-1 7 -11 4 -11 -13 0 -12 7 -21 16 -21 20 0 4 -9 5 -20 3 -12 -2 -20 2 -20 10
0 9 -8 12 -20 10 -13 -3 -18 0 -14 7 5 8 1 9 -10 5 -9 -4 -14 -3 -11 2 4 8
-34 28 -43 22 -1 -1 -12 8 -24 18 -11 11 -25 18 -30 15 -4 -3 -8 0 -8 6 0 7
-7 9 -16 6 -8 -3 -12 -2 -9 4 3 6 -2 13 -12 17 -10 3 -26 13 -35 21 -10 8 -18
11 -18 7 0 -4 -9 2 -20 15 -11 13 -23 21 -26 17 -3 -3 -14 2 -23 11 -10 10
-27 23 -39 31 -11 8 -18 19 -15 24 3 6 1 7 -5 3 -5 -3 -24 5 -40 19 -16 13
-32 22 -36 18 -3 -3 -6 2 -6 12 0 10 -3 16 -6 12 -3 -3 -19 8 -35 24 -15 16
-33 29 -39 29 -5 0 -10 7 -10 16 0 8 -4 13 -9 9 -13 -7 -52 35 -44 48 3 6 1 7
-5 3 -7 -4 -12 -2 -12 4 0 6 -4 8 -10 5 -5 -3 -10 1 -10 9 0 9 -7 16 -16 16
-8 0 -12 5 -9 10 3 6 -1 10 -10 10 -9 0 -13 5 -10 10 3 6 1 10 -5 10 -6 0 -8
5 -5 10 4 6 2 9 -3 8 -12 -4 -101 89 -94 97 3 3 -2 5 -11 5 -9 0 -17 7 -17 15
0 8 -4 15 -9 15 -5 0 -12 11 -15 25 -4 14 -10 24 -14 22 -4 -1 -8 3 -10 8 -2
6 -10 14 -18 18 -8 4 -14 15 -14 23 0 8 -4 12 -10 9 -5 -3 -10 3 -10 15 0 12
-4 19 -9 15 -5 -3 -12 4 -16 15 -3 11 -11 20 -17 20 -6 0 -9 3 -5 6 3 4 -5 21
-18 39 -14 17 -25 37 -25 43 0 7 -7 12 -15 12 -13 0 -21 27 -15 55 1 5 -1 7
-5 3 -10 -10 -33 15 -28 29 3 7 0 13 -5 13 -10 0 -22 25 -21 43 0 5 -7 14 -17
21 -11 8 -14 18 -9 26 5 9 4 11 -3 6 -7 -4 -12 -2 -12 5 0 7 -8 21 -17 32 -10
11 -12 17 -6 13 9 -5 11 -2 7 8 -3 9 -10 16 -14 16 -8 0 -25 49 -22 63 1 4 -3
7 -9 7 -5 0 -7 5 -4 10 3 6 -2 10 -12 10 -15 0 -16 2 -3 10 10 6 11 10 3 10
-7 0 -12 3 -11 8 1 4 -4 21 -11 37 -7 17 -14 37 -16 45 -1 8 -8 14 -14 13 -15
-4 -14 10 2 26 7 9 7 11 1 8 -14 -8 -28 38 -18 55 4 6 3 8 -3 5 -12 -8 -28 34
-35 91 -1 6 -6 12 -11 12 -5 0 -7 7 -4 15 4 8 2 17 -4 20 -5 4 -7 11 -4 16 4
5 1 9 -6 9 -8 0 -7 5 2 17 8 9 9 14 3 10 -13 -7 -27 26 -24 56 1 10 -6 30 -15
44 -10 14 -12 22 -5 18 12 -8 11 26 -2 35 -4 3 -8 20 -10 38 -1 18 -7 32 -13
32 -5 0 -4 4 4 9 9 6 10 11 2 15 -6 4 -9 12 -6 17 4 5 2 9 -2 9 -5 0 -8 18 -7
40 1 22 -1 40 -5 40 -4 0 -7 10 -8 23 0 12 -4 30 -8 40 -4 10 -3 17 5 17 6 0
8 5 5 10 -4 6 -12 7 -18 3 -8 -4 -7 -1 1 9 10 12 10 18 1 23 -8 6 -8 10 2 15
9 6 10 13 3 22 -6 7 -10 20 -9 28 0 8 -2 30 -6 47 -4 19 -3 30 2 27 5 -3 9 2
9 11 0 9 -4 14 -10 10 -5 -3 -8 7 -5 25 2 18 -1 30 -8 30 -8 0 -8 3 1 8 10 7
10 15 2 36 -6 17 -6 25 0 21 6 -3 10 -2 10 4 0 5 -5 13 -10 16 -6 4 -7 12 -3
18 10 16 11 47 2 47 -4 0 -4 13 1 29 4 15 4 34 -1 42 -4 7 -4 18 1 24 13 16
13 27 -2 36 -7 5 -8 9 -2 9 7 0 10 14 7 36 -2 19 0 33 5 30 5 -3 9 1 9 9 0 8
-5 11 -10 8 -7 -4 -7 1 -3 13 5 10 8 24 8 29 0 6 -3 19 -8 29 -5 13 -4 17 4
12 7 -4 10 6 9 34 -2 23 0 43 3 45 4 2 5 18 4 34 -1 17 3 31 8 31 6 0 4 8 -3
17 -12 14 -12 15 0 9 10 -7 12 -3 6 13 -3 11 -3 21 2 21 4 0 9 12 10 28 0 15
4 43 7 62 4 19 7 45 8 58 1 12 5 22 10 22 4 0 5 7 1 16 -3 9 0 20 8 25 12 7
12 9 0 9 -11 0 -11 3 -1 15 6 8 9 18 6 24 -3 5 1 12 10 15 13 5 14 9 5 20 -8
10 -9 16 -1 21 5 3 10 17 10 30 0 13 5 27 11 30 5 4 8 12 6 18 -2 7 2 24 10
39 7 15 13 30 13 33 -1 22 1 25 11 19 8 -5 9 -2 2 11 -10 16 8 68 28 85 3 3 5
13 3 23 -1 9 2 17 7 17 5 0 9 9 9 21 0 11 4 18 8 15 5 -3 8 8 7 24 -1 16 2 27
7 24 7 -5 12 10 9 29 0 4 4 7 11 7 6 0 8 3 5 6 -4 4 2 19 13 35 15 20 17 29 8
32 -8 3 -6 6 5 6 9 1 16 4 15 9 -1 4 5 21 12 37 7 17 12 34 11 39 -1 5 5 6 12
3 11 -4 13 0 10 14 -3 10 0 19 6 19 6 0 11 5 11 12 0 6 8 20 18 31 12 15 13
18 2 12 -8 -4 -5 3 8 17 12 13 22 30 22 36 0 7 5 12 10 12 6 0 10 9 10 21 0
11 5 17 10 14 9 -5 12 1 9 21 0 3 10 14 22 25 12 10 18 19 13 19 -5 1 1 9 13
19 12 10 19 21 16 25 -4 3 -1 6 6 6 7 0 10 4 7 9 -3 5 1 11 9 15 8 3 15 12 15
20 0 8 5 18 12 22 7 5 8 3 3 -6 -5 -9 -4 -11 3 -6 7 4 12 12 12 17 0 9 8 20
37 53 7 8 9 17 5 21 -4 5 -1 5 6 1 7 -4 15 0 19 11 9 23 28 43 43 43 6 0 9 4
6 9 -3 5 10 22 29 38 19 17 32 32 29 36 -3 3 4 8 15 12 12 3 19 11 16 16 -4 5
-2 9 4 9 14 0 97 82 93 93 -1 5 2 6 8 2 6 -3 26 9 44 29 19 19 36 32 39 29 3
-2 10 5 17 16 6 12 15 19 19 16 5 -2 17 6 27 20 10 13 21 22 26 19 4 -3 8 0 8
7 0 7 3 9 7 6 3 -4 16 4 28 18 13 13 26 21 29 17 4 -3 13 4 22 16 9 13 20 19
31 15 10 -4 14 -2 10 4 -4 6 1 17 10 24 9 8 14 9 10 2 -5 -8 -1 -8 17 0 13 7
22 15 20 18 -2 4 8 10 22 13 14 4 35 15 46 26 11 10 29 17 39 15 10 -2 18 1
16 8 -1 7 4 11 11 10 6 -2 12 2 12 7 0 6 9 10 20 10 11 0 20 5 20 12 0 6 3 8
6 5 4 -3 16 -1 28 5 11 7 25 12 29 13 4 0 12 6 16 14 5 7 15 11 22 9 8 -3 20
2 28 9 8 8 22 12 33 10 10 -3 16 -1 12 4 -5 8 17 14 39 10 4 -1 10 6 13 14 4
8 10 15 16 15 5 0 6 -6 3 -12 -4 -7 1 -4 9 6 12 15 16 16 16 5 0 -11 2 -11 8
-1 5 7 22 14 39 15 17 1 29 5 26 10 -2 4 2 7 9 8 7 0 21 2 31 5 9 2 25 6 35 8
9 3 18 5 20 6 1 2 7 4 12 5 6 1 12 4 15 5 3 1 8 3 13 4 4 1 13 5 21 10 10 6
12 5 7 -2 -4 -7 -2 -12 3 -12 6 0 11 5 11 11 0 6 6 9 13 6 6 -2 19 -1 28 4 9
4 33 9 53 11 20 1 36 5 36 8 0 4 16 6 35 5 20 0 37 5 40 13 3 10 10 10 24 2
11 -5 22 -6 25 -2 2 4 25 7 50 7 25 -1 43 2 40 7 -3 5 6 7 20 4 16 -3 26 0 26
7 0 8 3 8 8 2 9 -13 42 -16 42 -4 0 6 7 6 18 0 10 -5 24 -6 32 -1 7 4 28 7 47
5 18 -2 30 1 27 6 -3 5 6 5 20 -1 14 -5 26 -6 26 -1z"/>
</g>
</svg>
