<svg width="198" height="198" viewBox="0 0 198 198" fill="none" xmlns="http://www.w3.org/2000/svg">
<g clip-path="url(#clip0_2710_22942)">
<path d="M197.5 151.165H0.5V151.264H197.5V151.165Z" fill="#0C0C0C"/>
<path d="M158.854 123.588H149.4V123.194H158.854C161.049 123.194 163.172 121.901 164.264 119.9L164.61 120.089C163.45 122.215 161.191 123.588 158.854 123.588Z" fill="#1384FF"/>
<path d="M147.529 123.194H143.654V123.588H147.529V123.194Z" fill="#1384FF"/>
<path d="M158.854 122.209H48.2183C45.6179 122.209 43.6759 120.082 43.9028 117.481L49.8825 48.9253C50.1095 46.3249 52.4227 44.1973 55.0231 44.1973H165.659C168.259 44.1973 170.201 46.3249 169.975 48.9253L163.995 117.481C163.768 120.082 161.455 122.209 158.854 122.209Z" fill="#1384FF"/>
<path d="M156.55 120.773H48.6742C46.4599 120.773 44.8063 118.961 44.9998 116.747L50.4472 54.2917C50.5028 53.6535 51.0658 53.1357 51.7041 53.1357H165.319C165.958 53.1357 166.431 53.6535 166.375 54.2917L160.927 116.747C160.734 118.961 158.764 120.773 156.55 120.773Z" fill="#F5F5F5"/>
<path d="M62.4205 50.0083C59.2161 50.0083 56.8367 47.4016 57.116 44.1972C57.3954 40.9928 60.2298 38.3857 63.4342 38.3857C66.6386 38.3857 69.018 40.9928 68.7386 44.1972H66.3746C66.5405 42.2962 65.1288 40.7497 63.2282 40.7497C61.3275 40.7497 59.6463 42.2962 59.4804 44.1972C59.3146 46.0979 60.7263 47.6443 62.6269 47.6443L62.4205 50.0083Z" fill="#263238"/>
<path d="M85.8056 50.0083C82.6012 50.0083 80.2215 47.4016 80.5008 44.1972C80.7801 40.9928 83.615 38.3857 86.819 38.3857C90.023 38.3857 92.4028 40.9928 92.123 44.1972H89.759C89.9249 42.2962 88.5132 40.7497 86.6125 40.7497C84.7115 40.7497 83.0303 42.2962 82.8644 44.1972C82.6985 46.0979 84.1102 47.6443 86.0113 47.6443L85.8056 50.0083Z" fill="#263238"/>
<path d="M109.19 50.0083C105.986 50.0083 103.606 47.4016 103.886 44.1972C104.165 40.9928 107 38.3857 110.204 38.3857C113.408 38.3857 115.788 40.9928 115.508 44.1972H113.144C113.31 42.2962 111.898 40.7497 109.997 40.7497C108.096 40.7497 106.415 42.2962 106.249 44.1972C106.083 46.0979 107.495 47.6443 109.396 47.6443L109.19 50.0083Z" fill="#263238"/>
<path d="M132.573 50.0083C129.368 50.0083 126.989 47.4016 127.268 44.1972C127.548 40.9928 130.382 38.3857 133.587 38.3857C136.791 38.3857 139.171 40.9928 138.891 44.1972H136.527C136.693 42.2962 135.281 40.7497 133.38 40.7497C131.479 40.7497 129.798 42.2962 129.632 44.1972C129.467 46.0979 130.878 47.6443 132.779 47.6443L132.573 50.0083Z" fill="#263238"/>
<path d="M155.958 50.0083C152.753 50.0083 150.374 47.4016 150.653 44.1972C150.932 40.9928 153.767 38.3857 156.971 38.3857C160.175 38.3857 162.555 40.9928 162.275 44.1972H159.911C160.077 42.2962 158.665 40.7497 156.764 40.7497C154.864 40.7497 153.183 42.2962 153.017 44.1972C152.851 46.0979 154.263 47.6443 156.163 47.6443L155.958 50.0083Z" fill="#263238"/>
<path d="M156.265 117.94H49.6238C49.515 117.94 49.4347 117.852 49.4441 117.743L54.7592 56.8054C54.7686 56.6967 54.8644 56.6084 54.9735 56.6084H161.614C161.723 56.6084 161.803 56.6967 161.794 56.8054L156.479 117.743C156.469 117.852 156.373 117.94 156.265 117.94ZM49.8551 117.546H156.102L161.383 57.0024H55.1358L49.8551 117.546Z" fill="#E0E0E0"/>
<path d="M157.327 105.752H50.6863C50.5775 105.752 50.4972 105.664 50.5066 105.555C50.5161 105.447 50.6118 105.358 50.721 105.358H157.362C157.471 105.358 157.551 105.447 157.541 105.555C157.532 105.664 157.436 105.752 157.327 105.752Z" fill="#E0E0E0"/>
<path d="M158.392 93.5649H51.7507C51.642 93.5649 51.5616 93.4766 51.5711 93.3679C51.5805 93.2592 51.6763 93.1709 51.7854 93.1709H158.426C158.535 93.1709 158.615 93.2592 158.605 93.3679C158.596 93.477 158.501 93.5649 158.392 93.5649Z" fill="#E0E0E0"/>
<path d="M159.454 81.3774H52.8132C52.7045 81.3774 52.6241 81.2891 52.6336 81.1804C52.643 81.0717 52.7388 80.9834 52.8479 80.9834H159.489C159.597 80.9834 159.678 81.0717 159.668 81.1804C159.659 81.2891 159.563 81.3774 159.454 81.3774Z" fill="#E0E0E0"/>
<path d="M160.517 69.1899H53.8757C53.767 69.1899 53.6866 69.1016 53.6961 68.9929C53.7055 68.8842 53.8013 68.7959 53.9104 68.7959H160.551C160.66 68.7959 160.74 68.8842 160.731 68.9929C160.721 69.1016 160.626 69.1899 160.517 69.1899Z" fill="#E0E0E0"/>
<path d="M142.934 117.94C142.826 117.94 142.745 117.852 142.755 117.743L148.07 56.8054C148.079 56.6967 148.175 56.6084 148.284 56.6084C148.393 56.6084 148.473 56.6967 148.464 56.8054L143.149 117.743C143.139 117.852 143.043 117.94 142.934 117.94Z" fill="#E0E0E0"/>
<path d="M129.604 117.94C129.496 117.94 129.415 117.852 129.425 117.743L134.74 56.8054C134.749 56.6967 134.845 56.6084 134.954 56.6084C135.063 56.6084 135.143 56.6967 135.134 56.8054L129.819 117.743C129.809 117.852 129.713 117.94 129.604 117.94Z" fill="#E0E0E0"/>
<path d="M116.274 117.94C116.165 117.94 116.085 117.852 116.095 117.743L121.41 56.8054C121.419 56.6967 121.515 56.6084 121.624 56.6084C121.733 56.6084 121.813 56.6967 121.804 56.8054L116.489 117.743C116.479 117.852 116.383 117.94 116.274 117.94Z" fill="#E0E0E0"/>
<path d="M102.944 117.94C102.835 117.94 102.755 117.852 102.764 117.743L108.079 56.8054C108.089 56.6967 108.185 56.6084 108.294 56.6084C108.403 56.6084 108.483 56.6967 108.473 56.8054L103.158 117.743C103.149 117.852 103.053 117.94 102.944 117.94Z" fill="#E0E0E0"/>
<path d="M89.614 117.94C89.5053 117.94 89.4249 117.852 89.4343 117.743L94.7494 56.8054C94.7589 56.6967 94.8546 56.6084 94.9637 56.6084C95.0725 56.6084 95.1529 56.6967 95.1434 56.8054L89.8283 117.743C89.8189 117.852 89.7228 117.94 89.614 117.94Z" fill="#E0E0E0"/>
<path d="M76.2839 117.94C76.1752 117.94 76.0948 117.852 76.1043 117.743L81.4193 56.8054C81.4288 56.6967 81.5245 56.6084 81.6337 56.6084C81.7424 56.6084 81.8228 56.6967 81.8133 56.8054L76.4983 117.743C76.4884 117.852 76.3927 117.94 76.2839 117.94Z" fill="#E0E0E0"/>
<path d="M62.9539 117.94C62.8451 117.94 62.7647 117.852 62.7742 117.743L68.0893 56.8054C68.0987 56.6967 68.1944 56.6084 68.3036 56.6084C68.4123 56.6084 68.4927 56.6967 68.4833 56.8054L63.1682 117.743C63.1583 117.852 63.0626 117.94 62.9539 117.94Z" fill="#E0E0E0"/>
<path d="M116.993 79.9618H108.848C108.152 79.9618 107.638 79.3976 107.698 78.7022L108.329 71.4715C108.39 70.7757 109.003 70.2119 109.699 70.2119H117.843C118.539 70.2119 119.054 70.7757 118.993 71.4715L118.362 78.7022C118.302 79.398 117.688 79.9618 116.993 79.9618Z" fill="#1384FF"/>
<path opacity="0.6" d="M116.993 79.9618H108.848C108.152 79.9618 107.638 79.3976 107.698 78.7022L108.329 71.4715C108.39 70.7757 109.003 70.2119 109.699 70.2119H117.843C118.539 70.2119 119.054 70.7757 118.993 71.4715L118.362 78.7022C118.302 79.398 117.688 79.9618 116.993 79.9618Z" fill="white"/>
<path d="M173.818 79.9618H165.256L166.106 70.2119H174.668L171.451 75.0869L173.818 79.9618Z" fill="white"/>
<path d="M174.14 80.159H165.041L165.926 70.0146H175.025L171.678 75.0866L174.14 80.159ZM165.469 79.765H173.494L171.223 75.0866L174.31 70.4086H166.285L165.469 79.765Z" fill="#1384FF"/>
<path d="M142.514 92.1493H134.369C133.674 92.1493 133.159 91.5855 133.22 90.8897L133.85 83.659C133.911 82.9632 134.524 82.3994 135.22 82.3994H143.365C144.061 82.3994 144.575 82.9632 144.514 83.659L143.884 90.8897C143.823 91.5855 143.21 92.1493 142.514 92.1493Z" fill="#1384FF"/>
<path opacity="0.4" d="M142.514 92.1493H134.369C133.674 92.1493 133.159 91.5855 133.22 90.8897L133.85 83.659C133.911 82.9632 134.524 82.3994 135.22 82.3994H143.365C144.061 82.3994 144.575 82.9632 144.514 83.659L143.884 90.8897C143.823 91.5855 143.21 92.1493 142.514 92.1493Z" fill="white"/>
<path d="M158.123 67.7743H136.496C135.801 67.7743 135.286 67.2101 135.347 66.5147L135.977 59.284C136.038 58.5882 136.651 58.0244 137.347 58.0244H158.973C159.669 58.0244 160.184 58.5882 160.123 59.284L159.492 66.5147C159.431 67.2101 158.818 67.7743 158.123 67.7743Z" fill="#1384FF"/>
<path d="M71.8605 78.3135C68.5754 78.3135 65.8371 77.1532 63.8966 74.9259C61.4022 72.0631 61.0259 68.5088 62.9152 65.6496C65.7145 61.4125 73.0153 59.1541 77.8202 59.7797C77.9269 59.7935 77.9947 59.8924 77.9715 60.0004C77.9482 60.1083 77.8426 60.1828 77.7363 60.171C73.0532 59.5595 65.9505 61.7438 63.2402 65.8458C61.1067 69.0746 62.3399 72.5126 64.2059 74.6532C66.8102 77.6425 70.3637 78.0606 72.8857 77.8841C77.689 77.5492 82.9512 74.8045 85.9795 71.0541C86.8262 70.0048 88.128 67.9931 87.3305 66.3068C86.1517 63.8127 82.2192 63.9829 78.9249 64.4092C78.8194 64.4242 78.7236 64.347 78.7189 64.239C78.7145 64.1315 78.7989 64.0322 78.908 64.018C81.1049 63.7339 86.2502 63.0677 87.6911 66.1141C88.5787 67.9907 87.1871 70.1589 86.2786 71.2838C83.1782 75.1237 77.793 77.9341 72.8786 78.2765C72.5335 78.3017 72.1942 78.3135 71.8605 78.3135Z" fill="#1384FF"/>
<path d="M137.606 89.9757C137.595 89.9757 137.584 89.9753 137.572 89.9741C137.444 89.9631 137.336 89.8898 137.281 89.7783C136.692 88.5707 136.183 87.7894 135.631 87.2465C135.482 87.1003 135.492 86.8509 135.652 86.6898C135.813 86.5278 136.063 86.5168 136.211 86.6626C136.742 87.185 137.228 87.8887 137.758 88.9068C139.017 87.5995 140.49 86.3182 142.143 85.0917C142.325 84.9554 142.57 84.9849 142.691 85.1555C142.811 85.3261 142.761 85.5736 142.578 85.7087C140.793 87.0333 139.225 88.4214 137.92 89.8343C137.837 89.9245 137.722 89.9757 137.606 89.9757Z" fill="white"/>
<path d="M123.1 116.073C120.661 116.073 118.849 114.088 119.062 111.649C119.275 109.209 121.433 107.225 123.872 107.225C126.312 107.225 128.124 109.209 127.911 111.649C127.698 114.088 125.54 116.073 123.1 116.073ZM123.804 108.012C121.799 108.012 120.025 109.644 119.85 111.648C119.675 113.654 121.165 115.285 123.169 115.285C125.174 115.285 126.948 113.653 127.123 111.648C127.298 109.644 125.809 108.012 123.804 108.012Z" fill="#1384FF"/>
<path d="M85.2176 91.651C82.7779 91.651 80.9663 89.666 81.1791 87.2264C81.3918 84.7867 83.5498 82.8018 85.9894 82.8018C88.4291 82.8018 90.2407 84.7863 90.0279 87.2264C89.8152 89.666 87.6576 91.651 85.2176 91.651ZM85.9209 83.5898C83.9158 83.5898 82.142 85.2213 81.9671 87.2264C81.7922 89.2318 83.2815 90.863 85.2861 90.863C87.2912 90.863 89.065 89.2314 89.2399 87.2264C89.4149 85.2213 87.9259 83.5898 85.9209 83.5898Z" fill="#1384FF"/>
<path opacity="0.1" d="M92.9077 102.246H51.9723C50.347 102.246 49.1331 100.916 49.2749 99.2909C49.4168 97.6657 50.8624 96.3359 52.4876 96.3359H93.423C95.0483 96.3359 96.2622 97.6657 96.1204 99.2909C95.9785 100.916 94.5329 102.246 92.9077 102.246Z" fill="black"/>
<path d="M38.4787 92.8564L40.0149 93.5168L37.9531 96.0404C37.9531 96.0404 37.383 95.0786 37.1194 94.0491C37.0095 93.6188 37.2621 93.1795 37.6907 93.0657L38.4787 92.8564Z" fill="#FF8B7B"/>
<path d="M40.7214 96.2265L39.7994 97.2498C39.5 97.5823 38.9677 97.5449 38.7175 97.1737L37.9531 96.0402L40.0149 93.5166L40.8451 95.5004C40.9479 95.7459 40.8995 96.0287 40.7214 96.2265Z" fill="#FF8B7B"/>
<path d="M94.9184 101.253L41.6327 97.034C40.0126 96.9056 38.9074 95.4844 39.1773 93.8753C39.4468 92.2662 40.9932 91.0551 42.6134 91.1831L95.8991 95.4025C97.5192 95.5309 98.6244 96.9521 98.3545 98.5612C98.0846 100.17 96.5386 101.381 94.9184 101.253Z" fill="#1384FF"/>
<path d="M57.3182 76.3877C57.984 77.8904 58.6668 79.4298 59.3575 80.9289C60.0454 82.4218 60.7574 83.9446 61.5226 85.2436C61.7113 85.5616 61.9043 85.8559 62.0635 86.049C62.2995 86.3291 62.5623 86.6167 62.8334 86.9122C63.3803 87.4985 63.9657 88.0859 64.5516 88.6773C65.7281 89.8554 66.9278 91.0528 68.0933 92.2754L66.9003 93.8147C65.3987 92.9526 63.9661 92.0196 62.5655 91.0023C61.8638 90.4953 61.1762 89.9661 60.4922 89.3901C60.1475 89.1048 59.809 88.7963 59.4639 88.461C59.0459 88.0339 58.7519 87.6317 58.4742 87.244C57.406 85.6944 56.6121 84.1751 55.8233 82.6243C55.0523 81.07 54.3478 79.5204 53.6914 77.907L57.3182 76.3877Z" fill="#FF8B7B"/>
<path d="M44.2889 76.1644C43.3957 77.6261 42.4765 79.0949 41.5597 80.5508L38.8222 84.9147L38.488 85.4596L38.4463 85.5278L38.4258 85.5613L38.4226 85.568C38.4179 85.5766 38.4116 85.5845 38.4037 85.592C38.3872 85.6062 38.3738 85.657 38.3525 85.6866C38.2816 85.8647 38.2134 86.1716 38.1851 86.5069C38.1299 87.1893 38.1697 87.9903 38.2528 88.7913C38.4246 90.4012 38.7414 92.0981 39.0802 93.7411L37.2548 94.42C36.4286 92.7931 35.7667 91.1462 35.2868 89.3445C35.0591 88.439 34.8613 87.5108 34.8258 86.4549C34.8136 85.9234 34.8246 85.3576 34.9937 84.6996C35.048 84.5262 35.0886 84.3651 35.1662 84.1835L35.2868 83.9132L35.3376 83.8084L35.3751 83.7343L35.6761 83.1425C36.4842 81.5704 37.3368 80.0378 38.2158 78.524C39.0987 77.0099 40.0081 75.5265 40.9718 74.0537L44.2889 76.1644Z" fill="#FF8B7B"/>
<path d="M54.7171 65.2356C54.6442 65.4318 54.6872 65.6336 54.8137 65.6864C54.9397 65.7388 55.1013 65.6225 55.1746 65.4263C55.2474 65.2301 55.2045 65.0284 55.078 64.9756C54.9515 64.9228 54.79 65.0394 54.7171 65.2356Z" fill="#263238"/>
<path d="M54.6688 65.626C54.6688 65.626 54.6865 66.9411 54.9667 67.6886C54.5045 67.8702 53.9785 67.4801 53.9785 67.4801L54.6688 65.626Z" fill="#FF5652"/>
<path d="M55.4362 64.0852C55.4122 64.0817 55.3893 64.071 55.3704 64.0537C55.3566 64.0407 55.0253 63.7397 54.5099 63.8673C54.4449 63.8835 54.3775 63.8437 54.361 63.7775C54.3448 63.7117 54.385 63.6451 54.4508 63.6286C55.1001 63.4678 55.5213 63.8583 55.539 63.8748C55.5879 63.9213 55.5903 63.9985 55.5438 64.0478C55.5154 64.0785 55.4748 64.0911 55.4362 64.0852Z" fill="#263238"/>
<path d="M47.5306 65.624C47.2851 67.7449 47.689 70.4143 46.2383 71.4789C46.2383 71.4789 46.5421 73.4701 50.0297 73.9883C53.8649 74.558 52.0718 72.3457 52.0718 72.3457C50.0337 71.5321 50.2587 69.9781 50.7835 68.5656L47.5306 65.624Z" fill="#FF8B7B"/>
<path d="M45.0023 72.8116C44.9531 71.8329 45.0066 70.3586 45.6083 70.1462C46.2702 69.9122 50.1842 70.2234 52.1459 72.0004C51.4099 73.392 51.4765 74.862 51.4765 74.862L45.0023 72.8116Z" fill="#263238"/>
<path d="M33.0322 160.689C32.6933 160.689 32.1977 160.494 32.0133 160.398C31.992 160.387 31.979 160.364 31.9806 160.34C31.9818 160.316 31.9971 160.295 32.0196 160.286C32.0531 160.273 32.8415 159.97 33.1933 160.143C33.2765 160.184 33.3312 160.247 33.3557 160.331C33.4021 160.49 33.3482 160.575 33.2954 160.619C33.2343 160.669 33.1413 160.689 33.0322 160.689ZM32.202 160.352C32.5637 160.51 33.0791 160.638 33.217 160.524C33.2304 160.513 33.2709 160.48 33.2379 160.366C33.2229 160.316 33.1906 160.279 33.139 160.254C32.9286 160.15 32.4727 160.262 32.202 160.352Z" fill="#1384FF"/>
<path d="M32.0437 160.404C32.0275 160.404 32.0114 160.398 31.9999 160.385C31.9842 160.37 31.9787 160.346 31.985 160.326C31.9936 160.295 32.208 159.578 32.5515 159.409C32.6418 159.364 32.7336 159.359 32.8238 159.394C32.9652 159.449 32.9814 159.549 32.9786 159.604C32.9625 159.9 32.3447 160.326 32.0594 160.402C32.0539 160.404 32.0488 160.404 32.0437 160.404ZM32.7044 159.494C32.6717 159.494 32.639 159.502 32.6055 159.519C32.4003 159.62 32.2257 160.006 32.141 160.242C32.4373 160.111 32.8459 159.773 32.8553 159.597C32.8561 159.58 32.8585 159.539 32.7797 159.508C32.7545 159.499 32.7296 159.494 32.7044 159.494Z" fill="#1384FF"/>
<path d="M52.8383 161.834C52.5286 161.834 52.2075 161.794 52.0417 161.761C52.0168 161.756 51.9975 161.736 51.9932 161.711C51.9885 161.686 52.0007 161.661 52.0224 161.648C52.1524 161.571 53.3036 160.913 53.5818 161.368C53.6598 161.496 53.6322 161.586 53.5952 161.639C53.4912 161.788 53.1713 161.834 52.8383 161.834ZM52.2379 161.669C52.726 161.738 53.382 161.729 53.4943 161.569C53.5038 161.555 53.5294 161.519 53.477 161.432C53.3194 161.174 52.6197 161.469 52.2379 161.669Z" fill="#1384FF"/>
<path d="M52.0534 161.763C52.0412 161.763 52.0294 161.759 52.0187 161.752C52.001 161.74 51.9908 161.719 51.9923 161.698C51.9939 161.668 52.0365 160.97 52.356 160.698C52.4537 160.614 52.5672 160.58 52.6949 160.591C52.8674 160.608 52.9175 160.697 52.9297 160.767C52.9793 161.068 52.3895 161.615 52.079 161.757C52.0708 161.761 52.0621 161.763 52.0534 161.763ZM52.6456 160.711C52.5676 160.711 52.4986 160.737 52.4356 160.791C52.2264 160.97 52.1503 161.39 52.1259 161.592C52.438 161.403 52.8387 160.969 52.8079 160.787C52.8056 160.772 52.7977 160.724 52.6826 160.713C52.6696 160.712 52.6574 160.711 52.6456 160.711Z" fill="#1384FF"/>
<path d="M49.2012 161.702H51.7953L51.8217 155.694H49.2276L49.2012 161.702Z" fill="#FF8B7B"/>
<path d="M29.1094 159.843L31.5388 160.404L33.5785 154.462L31.1491 153.9L29.1094 159.843Z" fill="#FF8B7B"/>
<path d="M31.9172 160.002L29.0907 159.292C28.9878 159.266 28.8834 159.316 28.8401 159.412L27.8677 161.545C27.7668 161.766 27.9024 162.033 28.1411 162.089C29.1316 162.32 29.623 162.382 30.866 162.694C31.6308 162.886 33.1894 163.362 34.2454 163.627C35.278 163.886 35.661 162.872 35.2489 162.668C33.4006 161.753 32.7947 160.979 32.2927 160.26C32.2021 160.131 32.0677 160.039 31.9172 160.002Z" fill="#263238"/>
<path d="M51.7657 161.401H48.9329C48.8269 161.401 48.7378 161.475 48.7189 161.579L48.2954 163.884C48.2516 164.124 48.4415 164.35 48.6862 164.346C49.7075 164.328 51.1818 164.269 52.4658 164.269C53.9678 164.269 53.9969 164.35 55.7581 164.35C56.8231 164.35 57.0768 163.274 56.6273 163.176C54.5808 162.732 54.1931 162.685 52.3977 161.603C52.2034 161.486 51.9895 161.401 51.7657 161.401Z" fill="#263238"/>
<path d="M43.2005 71.3011C40.7353 71.4981 37.2559 77.6823 37.2559 77.6823L41.7218 81.7295C41.7218 81.7295 43.8329 79.427 45.5082 76.749C47.2639 73.9429 45.7213 71.0998 43.2005 71.3011Z" fill="#1384FF"/>
<path opacity="0.6" d="M43.2005 71.3011C40.7353 71.4981 37.2559 77.6823 37.2559 77.6823L41.7218 81.7295C41.7218 81.7295 43.8329 79.427 45.5082 76.749C47.2639 73.9429 45.7213 71.0998 43.2005 71.3011Z" fill="white"/>
<path opacity="0.2" d="M44.4647 75.7627L41.5117 81.5383L41.7213 81.7302C41.7213 81.7302 42.8624 80.4824 44.1369 78.7587L44.4647 75.7627Z" fill="black"/>
<path d="M55.5597 85.1708C55.1153 88.032 54.4128 91.5685 53.3293 95.9266L39.6035 93.8868C39.7304 91.9196 41.83 83.1322 41.4167 73.7054C41.3584 72.3788 42.4297 71.274 43.7571 71.3043C44.4332 71.3197 45.1814 71.3559 45.9138 71.4288C47.6762 71.6049 50.2218 71.9261 51.7466 72.2956C53.7588 72.7838 55.6149 73.5986 55.6149 73.5986C55.6149 73.5986 56.5999 75.0442 56.0696 81.059C55.9644 82.2469 55.8016 83.6078 55.5597 85.1708Z" fill="#1384FF"/>
<path opacity="0.6" d="M55.5597 85.1708C55.1153 88.032 54.4128 91.5685 53.3293 95.9266L39.6035 93.8868C39.7304 91.9196 41.83 83.1322 41.4167 73.7054C41.3584 72.3788 42.4297 71.274 43.7571 71.3043C44.4332 71.3197 45.1814 71.3559 45.9138 71.4288C47.6762 71.6049 50.2218 71.9261 51.7466 72.2956C53.7588 72.7838 55.6149 73.5986 55.6149 73.5986C55.6149 73.5986 56.5999 75.0442 56.0696 81.059C55.9644 82.2469 55.8016 83.6078 55.5597 85.1708Z" fill="white"/>
<path opacity="0.2" d="M55.5597 85.1706C54.4451 84.4666 53.4014 81.2239 53.8714 79.5234L56.0696 81.0593C55.9644 82.2468 55.8016 83.6076 55.5597 85.1706Z" fill="black"/>
<path d="M52.4775 75.3514C51.7687 77.7174 56.0613 84.679 56.0613 84.679L61.1967 81.9974C61.1967 81.9974 60.0304 78.4908 58.1842 75.7911C56.1216 72.7758 53.2757 72.6864 52.4775 75.3514Z" fill="#1384FF"/>
<path opacity="0.6" d="M52.4775 75.3514C51.7687 77.7174 56.0613 84.679 56.0613 84.679L61.1967 81.9974C61.1967 81.9974 60.0304 78.4908 58.1842 75.7911C56.1216 72.7758 53.2757 72.6864 52.4775 75.3514Z" fill="white"/>
<path opacity="0.2" d="M51.8212 155.696L51.8078 158.792H49.2129L49.2259 155.696H51.8212Z" fill="black"/>
<path opacity="0.2" d="M31.1481 153.902L33.5787 154.464L32.5263 157.527L30.0957 156.965L31.1481 153.902Z" fill="black"/>
<path d="M48.4299 62.1356C47.6785 64.6063 47.1155 66.0098 47.8531 67.7457C48.9626 70.3576 52.3009 70.4738 53.7623 68.304C55.0775 66.351 56.0853 62.6387 54.1204 60.712C52.1851 58.8137 49.1812 59.6648 48.4299 62.1356Z" fill="#FF8B7B"/>
<path d="M52.398 64.8529C52.1025 66.1168 51.3338 68.3989 49.441 68.6617C48.3882 68.8079 46.6306 68.4974 46.4663 67.644C46.302 66.7902 46.9588 66.9088 46.7945 66.2094C46.6302 65.5101 45.7658 63.0764 46.7452 61.34C45.3828 61.455 46.3185 59.4358 48.7645 58.9594C48.0092 58.6639 48.3705 56.6081 52.1454 57.5804C53.9117 58.0355 55.2214 58.7297 55.3805 59.6769C56.9861 60.355 57.4112 62.0622 56.4148 62.6863C55.4495 63.2907 53.9783 62.6043 53.9783 62.6043C53.9783 62.6043 54.6579 66.2319 52.398 64.8529Z" fill="#263238"/>
<path d="M51.3716 64.6567C51.3243 65.2572 51.5457 65.8434 51.8574 66.2394C52.3259 66.8355 52.4835 66.843 52.6781 66.1771C52.8534 65.5779 53.2853 64.2383 52.6588 63.8809C52.0414 63.5287 51.426 63.97 51.3716 64.6567Z" fill="#FF8B7B"/>
<path d="M48.4603 95.2033C48.4603 95.2033 46.3307 115.543 45.0013 122.97C43.5455 131.102 33.8582 157.263 33.8582 157.263L29.25 156.106C31.6223 147.056 35.1151 130.168 37.2478 123.707C38.8553 113.884 37.2561 101.539 39.6051 93.8877L48.4603 95.2033Z" fill="#263238"/>
<path d="M34.954 155.734C34.9737 155.739 34.1022 157.401 34.1022 157.401L28.918 156.099L29.3486 154.528L34.954 155.734Z" fill="#1384FF"/>
<path opacity="0.2" d="M47.1443 103.135C47.3031 103.103 47.4517 103.1 47.5927 103.125C46.9076 109.201 45.9403 117.319 45.174 121.962C44.5388 115.215 43.9455 103.767 47.1443 103.135Z" fill="black"/>
<path d="M53.3296 95.9273C53.3296 95.9273 54.4056 117.667 54.5613 125.576C54.7236 133.802 52.7516 158.193 52.7516 158.193H48.3573C48.3573 158.193 46.6974 135.577 47.5938 124.545C46.5335 116.14 44.3086 94.5869 44.3086 94.5869L53.3296 95.9273Z" fill="#263238"/>
<path d="M69.1942 92.0266C68.5681 91.9711 67.7238 92.0589 67.0906 92.3253L66.7719 92.8521C66.5004 93.3008 66.7195 93.8859 67.2194 94.0455L68.7596 94.5368L69.5117 94.7657C69.838 94.865 70.191 94.7452 70.3896 94.4679L70.7115 94.0183C70.9471 93.6893 70.8978 93.2362 70.5976 92.9651L69.903 92.3387C69.7064 92.1606 69.4585 92.0503 69.1942 92.0266Z" fill="#FF8B7B"/>
<path d="M53.5292 156.442C53.5493 156.442 53.3515 158.267 53.3515 158.267H48.0061L47.7988 156.639L53.5292 156.442Z" fill="#1384FF"/>
</g>
<defs>
<clipPath id="clip0_2710_22942">
<rect width="197" height="197" fill="white" transform="translate(0.5 0.5)"/>
</clipPath>
</defs>
</svg>
